<svg width="124" height="100" viewBox="0 0 124 100" fill="none" xmlns="http://www.w3.org/2000/svg">
<g clip-path="url(#clip0)">
<path d="M81.4889 55.9882C78.8763 57.555 74.2217 59.5182 69.4651 57.5006L66.3904 56.1964L72.5519 49.2893C67.6351 43.868 64.9149 36.8089 64.9224 29.49C64.9299 22.1711 67.6645 15.1177 72.5925 9.7064C77.5204 4.29515 84.288 0.914499 91.5743 0.224314C98.8606 -0.46587 106.143 1.58395 111.999 5.97367C117.855 10.3634 121.866 16.778 123.247 23.9653C124.629 31.1526 123.283 38.5969 119.471 44.845C115.659 51.0931 109.656 55.6966 102.633 57.757C95.6106 59.8174 88.0719 59.1867 81.4889 55.9882V55.9882ZM69.6833 29.4735C69.6697 32.8474 70.3544 36.1876 71.6943 39.284C73.0343 42.3804 75.0005 45.166 77.4692 47.4657L79.1688 49.0628L75.2915 53.4091C77.3111 52.9993 79.0701 51.9067 79.9621 51.2722L81.1859 50.4014L82.5022 51.1246C86.1406 53.1167 90.2219 54.1606 94.37 54.1602C107.982 54.1602 119.057 43.0859 119.057 29.4735C119.057 15.8613 107.982 4.78685 94.37 4.78685C80.7577 4.78685 69.6833 15.8613 69.6833 29.4735V29.4735Z" fill="#3F3D56"/>
<path d="M67.2901 29.4736C67.2901 14.5176 79.4143 2.39342 94.3702 2.39342C109.326 2.39342 121.45 14.5176 121.45 29.4736C121.45 44.4295 109.326 56.5537 94.3702 56.5537C89.8185 56.5604 85.3391 55.4144 81.3498 53.2225C79.4779 54.5544 74.9113 57.211 70.4 55.2973L75.8304 49.21C73.1309 46.6807 70.9799 43.6237 69.5108 40.2286C68.0417 36.8335 67.2858 33.1729 67.2901 29.4736Z" fill="#CE63FF"/>
<path opacity="0.1" d="M116.837 29.5323C116.837 15.3831 105.985 3.77052 92.1504 2.55867C92.9392 2.48957 93.7371 2.45218 94.5438 2.45218C109.5 2.45218 121.624 14.5764 121.624 29.5323C121.624 44.4883 109.5 56.6125 94.5438 56.6125C93.7383 56.6125 92.9418 56.5746 92.1542 56.5056C105.987 55.292 116.837 43.6802 116.837 29.5323Z" fill="black"/>
<path d="M31.9671 93.6083C25.2006 93.6115 18.6387 91.2889 13.3809 87.0296C8.12317 82.7704 4.48915 76.8333 3.08789 70.2135C1.68662 63.5937 2.60327 56.6934 5.68421 50.6691C8.76514 44.6447 13.8231 39.8623 20.0105 37.1235C26.1979 34.3846 33.1387 33.8557 39.6697 35.6253C46.2006 37.395 51.9249 41.3556 55.8832 46.8436C59.8414 52.3315 61.7931 59.0132 61.4111 65.7689C61.0292 72.5246 58.3368 78.9437 53.7851 83.9505L59.9467 90.8576L56.872 92.1619C52.1154 94.1795 47.4607 92.2162 44.8482 90.6494C40.8331 92.5958 36.4292 93.6075 31.9671 93.6083ZM31.9671 39.448C18.3549 39.448 7.28044 50.5225 7.28044 64.1347C7.28044 77.7471 18.3549 88.8214 31.9671 88.8214C36.1152 88.8219 40.1965 87.7779 43.8349 85.7858L45.1512 85.0626L46.375 85.9334C47.267 86.568 49.026 87.6605 51.0456 88.0703L47.1683 83.724L48.8679 82.1269C51.3366 79.8272 53.3028 77.0416 54.6427 73.9452C55.9827 70.8488 56.6674 67.5086 56.6538 64.1347C56.6538 50.5225 45.5794 39.448 31.9671 39.448Z" fill="#3F3D56"/>
<path d="M59.047 64.1346C59.047 49.1786 46.9228 37.0544 31.9669 37.0544C17.0109 37.0544 4.88672 49.1786 4.88672 64.1346C4.88672 79.0905 17.0109 91.2147 31.9669 91.2147C36.5186 91.2214 40.9979 90.0753 44.9872 87.8835C46.8592 89.2154 51.4258 91.8719 55.9371 89.9583L50.5067 83.871C53.2062 81.3416 55.3572 78.2846 56.8263 74.8896C58.2954 71.4945 59.0512 67.8339 59.047 64.1346Z" fill="#CE63FF"/>
<path opacity="0.1" d="M9.67361 63.998C9.67361 49.8488 20.5257 38.2362 34.3603 37.0243C33.5715 36.9552 32.7736 36.9178 31.9669 36.9178C17.0109 36.9178 4.88672 49.042 4.88672 63.998C4.88672 78.9539 17.0109 91.0781 31.9669 91.0781C32.7724 91.0781 33.5689 91.0403 34.3565 90.9713C20.5237 89.7577 9.67361 78.1459 9.67361 63.998Z" fill="black"/>
<path d="M100.728 20.8703C98.9559 17.8765 95.4505 17.737 95.4505 17.737C95.4505 17.737 92.0347 17.3002 89.8435 21.8598C87.8011 26.1097 84.9824 30.2131 89.3897 31.208L90.1858 28.7302L90.6788 31.3924C91.3063 31.4376 91.9359 31.4483 92.5646 31.4247C97.2845 31.2723 101.779 31.4693 101.635 29.7756C101.442 27.524 102.433 23.751 100.728 20.8703Z" fill="#2F2E41"/>
<path d="M89.1381 47.0884C89.086 47.4177 89.0105 47.7428 88.912 48.0614C88.8012 48.3731 88.63 48.6615 88.5286 48.9764C88.2055 49.9805 88.6534 51.0999 89.3689 51.8749C89.9894 52.5443 90.7903 53.0199 91.675 53.2443C92.3263 53.3836 92.9906 53.4534 93.6567 53.4525C95.4986 53.515 97.3879 53.5708 99.1332 52.9789C99.6846 52.7873 100.217 52.5453 100.724 52.2561C100.884 52.1798 101.025 52.0688 101.137 51.931C101.254 51.7293 101.306 51.4965 101.286 51.2641C101.282 50.4833 101.124 49.7065 101.161 48.9265C101.182 48.4945 101.263 48.0629 101.223 47.6322C101.168 47.1431 100.963 46.6829 100.637 46.3147C100.31 45.9466 99.8776 45.6883 99.3985 45.5754C98.9034 45.469 98.3898 45.527 97.8858 45.5754C96.5774 45.7012 95.2634 45.7599 93.9489 45.7515C92.6059 45.7429 91.2712 45.5379 89.9349 45.5165C89.5397 45.5102 89.5477 45.632 89.4219 46.0145C89.306 46.3665 89.2112 46.7251 89.1381 47.0884Z" fill="#2F2E41"/>
<path d="M92.9493 27.808C92.8847 28.1459 92.815 28.4962 92.6119 28.7739C92.3783 29.0934 91.9973 29.276 91.7459 29.5818C91.3676 30.042 91.3459 30.6897 91.3443 31.2855C91.3429 31.8343 91.354 32.4198 91.6601 32.8754C91.878 33.1584 92.1483 33.3968 92.4564 33.5774C93.6043 34.351 94.8446 35.1384 96.2286 35.1639C96.802 35.1745 97.4168 35.0264 97.7941 34.5945C97.957 34.3916 98.0851 34.1631 98.1731 33.9182C98.527 33.0459 98.7415 32.1234 98.8088 31.1845C98.8598 30.7431 98.8186 30.2959 98.6878 29.8712C98.5197 29.4025 98.1797 29.0168 97.955 28.5724C97.6895 28.0439 97.5923 27.4467 97.6767 26.8613C97.6879 26.8201 97.6845 26.7763 97.667 26.7373C97.6485 26.7164 97.6254 26.7001 97.5996 26.6897C97.5738 26.6792 97.5459 26.6749 97.5181 26.677L94.774 26.4794C94.5184 26.4667 94.264 26.4376 94.0121 26.3923C93.8642 26.3622 93.4735 26.1521 93.3324 26.208C93.0713 26.3114 93.0028 27.5277 92.9493 27.808Z" fill="#A0616A"/>
<path opacity="0.1" d="M92.9493 27.8936C92.8847 28.2315 92.815 28.5818 92.6119 28.8595C92.3783 29.179 91.9973 29.3616 91.7459 29.6674C91.3676 30.1276 91.3459 30.7753 91.3443 31.3711C91.3429 31.92 91.354 32.5054 91.6601 32.961C91.878 33.244 92.1483 33.4824 92.4564 33.663C93.6043 34.4366 94.8446 35.224 96.2286 35.2495C96.802 35.2601 97.4168 35.112 97.7941 34.6801C97.957 34.4772 98.0851 34.2487 98.1731 34.0038C98.527 33.1315 98.7415 32.209 98.8088 31.2701C98.8598 30.8287 98.8186 30.3815 98.6878 29.9569C98.5197 29.4881 98.1797 29.1024 97.955 28.658C97.6895 28.1295 97.5923 27.5323 97.6767 26.9469C97.6879 26.9057 97.6845 26.8619 97.667 26.8229C97.6485 26.8021 97.6254 26.7858 97.5996 26.7753C97.5738 26.7648 97.5459 26.7605 97.5181 26.7626L94.774 26.5651C94.5185 26.5524 94.264 26.5232 94.0121 26.4779C93.8642 26.4478 93.4735 26.2377 93.3324 26.2936C93.0713 26.397 93.0028 27.6134 92.9493 27.8936Z" fill="black"/>
<path d="M95.5733 28.1759C97.7968 28.1759 99.5993 26.3734 99.5993 24.15C99.5993 21.9265 97.7968 20.124 95.5733 20.124C93.3498 20.124 91.5474 21.9265 91.5474 24.15C91.5474 26.3734 93.3498 28.1759 95.5733 28.1759Z" fill="#A0616A"/>
<path d="M93.5138 33.1672C93.7127 33.3975 93.9524 33.5891 94.2209 33.7322C94.5009 33.8479 94.8015 33.9052 95.1043 33.9004C95.8301 33.9209 96.6168 33.7879 97.1216 33.2661C97.7724 32.5936 97.751 31.5088 98.261 30.7242C98.3021 30.6531 98.3582 30.5917 98.4254 30.5444C98.511 30.4979 98.6077 30.4756 98.705 30.4802C99.3492 30.4741 99.9104 30.892 100.417 31.2902C100.655 31.4542 100.86 31.6626 101.019 31.904C101.12 32.0994 101.188 32.3094 101.223 32.5262C101.474 33.7531 101.555 35.0076 101.636 36.2574C101.681 36.9477 101.725 37.6386 101.722 38.3304C101.711 40.6093 101.181 42.8502 100.655 45.0675C100.587 45.3532 100.494 45.6725 100.234 45.8094C100.118 45.8614 99.9939 45.8918 99.8671 45.8989C98.3584 46.0761 96.8465 46.2535 95.3276 46.2769C94.7349 46.2861 94.1424 46.2717 93.5501 46.2339C93.4482 46.2325 93.3471 46.2149 93.2507 46.1817C93.1199 46.1189 93.0074 46.0234 92.9243 45.9045C92.1027 44.8691 92.0542 43.4378 92.0594 42.1161C92.0722 38.8846 92.1877 35.6557 92.4058 32.4294C92.4238 32.1631 92.4277 31.8397 92.2358 31.6302C92.6094 32.1839 93.0376 32.6988 93.5138 33.1672Z" fill="white"/>
<path d="M92.6611 28.5187C92.5252 28.7648 91.5227 29.376 91.3292 29.58C90.2478 30.7198 88.2743 30.677 87.2853 31.8978C86.9374 32.3273 86.7566 32.867 86.6236 33.4036C86.4356 34.1624 86.3352 34.99 86.6502 35.7055C86.9533 36.394 87.5914 36.87 88.0246 37.485C88.5002 38.1603 88.7141 38.9802 88.919 39.7803C89.0704 40.3711 89.2229 40.9765 89.164 41.5835C89.097 42.2737 88.763 42.9057 88.5658 43.5704C88.3687 44.2352 88.3346 45.027 88.7905 45.5494C89.1255 45.9332 89.6509 46.0854 90.1531 46.171C90.7963 46.2676 91.4449 46.3241 92.0951 46.34C92.6691 46.3654 93.3019 46.3703 93.7432 46.0023C94.0914 45.7119 94.2428 45.2407 94.2624 44.7877C94.282 44.3348 94.1877 43.8858 94.1287 43.4362C94.0675 42.9702 94.044 42.5001 94.0243 42.0305C93.936 39.9235 93.924 37.815 93.9881 35.7052C94.0205 35.2667 93.999 34.8259 93.9241 34.3927C93.801 33.8283 93.496 33.3239 93.2415 32.8054C92.7328 31.8287 92.5024 30.731 92.5755 29.6322C92.6526 28.503 93.145 27.6428 92.6611 28.5187Z" fill="white"/>
<path d="M98.3143 28.6043C98.5214 28.8171 99.2252 28.8873 99.4886 29.0244C99.7365 29.1389 99.9951 29.2284 100.261 29.2917C101.222 29.5689 102.136 29.9884 102.973 30.5363C103.146 30.6381 103.3 30.7708 103.426 30.9281C103.559 31.1439 103.644 31.3853 103.677 31.6365C103.806 32.2755 103.936 32.9222 103.907 33.5735C103.876 34.2648 103.668 34.9344 103.461 35.5948L102.689 38.0626C102.113 39.9046 101.533 41.7647 101.371 43.6879C101.281 44.7538 101.321 45.8266 101.49 46.8829C101.506 46.9343 101.51 46.9885 101.504 47.0418C101.497 47.0952 101.479 47.1465 101.451 47.1924C101.4 47.2426 101.333 47.2734 101.262 47.2793C100.889 47.3376 100.529 47.1476 100.191 46.9795C99.1595 46.4661 98.0585 46.1059 96.9229 45.9101C97.3666 45.2688 97.709 44.563 97.938 43.8175C98.068 43.3441 98.1704 42.8636 98.2447 42.3783L98.6038 40.3015C98.7498 39.5425 98.8527 38.7757 98.9118 38.0049C98.9389 37.7157 98.9221 37.424 98.8618 37.1398C98.779 36.8694 98.6692 36.608 98.5338 36.3596C97.9421 35.1287 97.6644 33.7239 97.8972 32.3781C97.9991 31.7891 98.1972 31.1994 98.1146 30.6074C98.0352 30.0382 98.1177 29.5958 97.9717 29.0326C97.3721 26.7198 97.9247 28.2038 98.3143 28.6043Z" fill="white"/>
<path d="M87.2751 33.844C87.0053 34.4038 86.5543 34.8807 86.4008 35.4829C86.3411 35.7644 86.3155 36.052 86.3246 36.3395C86.2979 36.7729 86.3408 37.2078 86.4516 37.6276C86.5373 37.8932 86.6767 38.1381 86.7771 38.3984C86.9171 38.7621 86.9795 39.1511 86.9602 39.5404C86.9331 40.0796 86.7499 40.6031 86.7356 41.1429C86.7131 41.9917 87.1057 42.7896 87.4888 43.5474C87.5852 43.3086 87.7326 43.0938 87.9207 42.918C88.1088 42.7421 88.3331 42.6095 88.5778 42.5294C88.8226 42.4492 89.0818 42.4235 89.3375 42.4541C89.5932 42.4847 89.8392 42.5707 90.0581 42.7062C90.1459 42.5985 90.1875 42.4604 90.1739 42.3221C90.2022 41.3374 90.2296 40.3526 90.2559 39.3678C90.2973 37.8447 90.3368 36.3013 89.9865 34.8185C89.8283 34.149 89.5822 33.4821 89.1309 32.9628C88.8933 32.6894 88.0867 31.9692 87.6967 32.2755C87.5213 32.4132 87.5623 32.7882 87.5345 32.9781C87.4926 33.2782 87.4051 33.5702 87.2751 33.844Z" fill="white"/>
<path d="M103.986 32.2306C104.094 32.6343 104.141 33.0522 104.123 33.4699C104.129 34.3212 104.117 35.1724 104.09 36.0234C104.094 36.4599 104.038 36.895 103.924 37.3162C103.837 37.5902 103.702 37.8471 103.612 38.1202C103.342 38.9385 103.49 39.826 103.513 40.6873C103.529 40.966 103.505 41.2457 103.442 41.5177C103.3 42.0516 102.918 42.483 102.651 42.9668C102.397 43.4263 102.244 43.9414 101.941 44.37C101.639 44.7986 101.114 45.1383 100.606 45.0067C100.222 44.907 99.948 44.5663 99.7588 44.2166C99.346 43.4476 99.2048 42.5618 99.3581 41.7026C99.548 40.6573 100.162 39.7299 100.384 38.6908C100.688 37.2639 100.225 35.7914 100.239 34.3325C100.233 34.1038 100.264 33.8756 100.331 33.6569C100.447 33.3236 100.697 33.0575 100.927 32.7902C101.215 32.4562 101.483 32.1051 101.728 31.7388C101.893 31.4928 102.117 30.8599 102.41 30.8073C103.063 30.6898 103.824 31.7261 103.986 32.2306Z" fill="white"/>
<path d="M83.8863 46.4539C83.5252 46.3631 83.1531 46.3236 82.7809 46.3364C82.3899 46.358 82.008 46.4626 81.6605 46.6433C81.3131 46.8239 81.0081 47.0765 80.7658 47.3841C80.5235 47.6918 80.3495 48.0475 80.2553 48.4276C80.1611 48.8077 80.1489 49.2035 80.2196 49.5887C80.3097 50.006 80.4571 50.4088 80.6576 50.7856C80.9507 51.3806 81.3023 51.9741 81.845 52.3554C82.172 52.565 82.5241 52.7326 82.893 52.8542L85.7513 53.931C86.1718 54.0894 86.5923 54.2478 87.017 54.3947C89.1504 55.1321 91.3746 55.5743 93.6279 55.709C94.3135 55.7732 95.0048 55.7382 95.6805 55.6049C95.8438 55.5836 95.9935 55.5028 96.1008 55.3778C96.1553 55.2829 96.1874 55.1768 96.1948 55.0676L96.3706 53.8363C96.41 53.6648 96.4049 53.4861 96.3557 53.3172C96.2751 53.1103 96.0732 52.9801 95.8806 52.8695C94.0015 51.7902 91.8074 51.1948 90.2257 49.7135C89.8533 49.3648 89.5417 48.812 89.0893 48.5751C88.5763 48.3065 87.9721 48.1532 87.4418 47.9057C86.2825 47.3645 85.1428 46.7427 83.8863 46.4539Z" fill="#2F2E41"/>
<path opacity="0.1" d="M86.7399 48.1139C87.7502 48.4305 92.0156 50.6237 92.7467 51.3895C92.6487 51.4248 89.3237 49.5614 89.224 49.5314C88.3094 49.2803 87.4138 48.9647 86.5439 48.587C86.3706 48.5068 85.4183 48.1302 85.4614 47.9116C85.51 47.6649 86.5605 48.0577 86.7399 48.1139Z" fill="black"/>
<path d="M99.3439 56.3474C99.4012 56.3516 99.4581 56.3349 99.5041 56.3003C99.5242 56.2744 99.539 56.2448 99.5476 56.2132C99.5562 56.1815 99.5584 56.1485 99.5541 56.116L99.5494 54.4385C99.067 54.2087 98.5275 54.135 97.9978 54.0643L95.5267 53.734C95.5835 53.7415 95.1403 54.7983 95.2083 54.9393C95.328 55.188 96.2433 55.4084 96.5016 55.5258C97.3995 55.9339 98.3326 56.3826 99.3439 56.3474Z" fill="#A0616A"/>
<path d="M91.5908 54.4327C91.1242 54.507 90.6034 54.5727 90.3013 54.9359C89.9181 55.3965 90.0812 56.0831 90.264 56.6537C90.2752 56.7273 90.301 56.798 90.3399 56.8615C90.3788 56.925 90.4301 56.98 90.4907 57.0234C90.5513 57.0667 90.6199 57.0974 90.6926 57.1138C90.7652 57.1301 90.8404 57.1317 90.9137 57.1184C91.3392 57.1454 91.7921 57.1665 92.1638 56.9578C92.3322 56.8465 92.4944 56.726 92.6495 56.5968C92.9236 56.4144 93.225 56.2766 93.5423 56.1886C94.1257 56.0051 94.7262 55.8814 95.3345 55.8193C95.5743 55.8083 95.8116 55.7665 96.0406 55.6948C96.155 55.6579 96.2593 55.5952 96.3456 55.5115C96.4318 55.4278 96.4976 55.3253 96.5378 55.212C96.6239 54.9072 96.4467 54.5964 96.2768 54.3291C96.081 53.9789 95.8268 53.6647 95.5253 53.4002C95.0648 53.0425 94.8371 53.3171 94.3732 53.546C93.4954 53.9792 92.5574 54.2781 91.5908 54.4327Z" fill="#A0616A"/>
<path d="M90.3714 54.853L87.4088 53.9774C87.0535 53.8536 86.6822 53.7817 86.3063 53.7637C86.1181 53.756 85.9305 53.7885 85.7559 53.8591C85.5813 53.9297 85.4238 54.0368 85.2939 54.1732C85.0641 54.4428 84.9984 54.8113 84.9411 55.1608L84.8186 55.9086C84.7369 56.2855 84.7138 56.6728 84.75 57.0568C84.7697 57.2489 84.833 57.4339 84.935 57.5979C85.037 57.7618 85.175 57.9003 85.3386 58.0028C85.7485 58.2265 86.251 58.1173 86.7085 58.0237C87.6327 57.8348 88.5727 57.734 89.516 57.7226C89.8706 57.7184 90.2425 57.7228 90.5558 57.5568C90.7377 57.449 90.8905 57.2984 91.0009 57.118C91.1114 56.9377 91.1761 56.7332 91.1895 56.5222C91.2478 55.8834 91.0349 55.0491 90.3714 54.853Z" fill="#2F2E41"/>
<path d="M100.509 54.09C100.893 54.0227 101.232 53.8044 101.6 53.6756C102.118 53.4942 102.679 53.4942 103.228 53.4963C103.429 53.4778 103.632 53.5184 103.811 53.6132C104.053 53.7741 104.115 54.0962 104.156 54.3837L104.404 56.1182C104.471 56.4418 104.477 56.7748 104.424 57.1009C104.352 57.4223 104.133 57.7322 103.814 57.8151C103.426 57.9159 103.046 57.6684 102.681 57.5058C101.766 57.0995 100.704 57.2034 99.7505 56.8997C99.6594 56.8814 99.5732 56.844 99.4976 56.7899C99.422 56.7359 99.3587 56.6664 99.312 56.5861C99.2794 56.4897 99.2678 56.3875 99.2779 56.2863C99.2942 55.7288 99.1766 54.9675 99.3445 54.4346C99.4954 53.9554 100.08 54.09 100.509 54.09Z" fill="#2F2E41"/>
<path d="M106.778 45.7556C107.37 45.6072 107.983 45.5653 108.59 45.6318C109.074 45.6852 109.574 45.82 109.927 46.1553C110.358 46.5635 110.496 47.1947 110.508 47.7879C110.527 48.9693 110.135 50.1206 109.399 51.0452C109.22 51.2791 109.006 51.4847 108.765 51.6553C108.506 51.8176 108.229 51.9509 107.941 52.0527L101.54 54.5775C99.8557 55.2417 98.1658 55.9078 96.4093 56.3457C96.3613 56.3689 96.3091 56.3822 96.2558 56.385C96.2026 56.3877 96.1493 56.3797 96.0992 56.3615C96.049 56.3434 96.003 56.3153 95.9639 56.2791C95.9248 56.2429 95.8933 56.1992 95.8713 56.1507C95.3104 55.3496 94.8399 54.4889 94.4683 53.5843C94.4507 53.5628 94.4386 53.5374 94.4329 53.5102C94.4272 53.483 94.4281 53.4549 94.4356 53.4281C94.4431 53.4014 94.457 53.3768 94.4759 53.3565C94.4949 53.3363 94.5185 53.3209 94.5447 53.3117L99.0723 50.7103C99.4043 50.5371 99.7137 50.3239 99.9938 50.0753C100.189 49.8857 100.35 49.6626 100.467 49.4167C100.561 49.2207 100.57 48.7581 100.689 48.6132C100.807 48.4713 101.208 48.46 101.394 48.4042C101.655 48.3241 101.911 48.2273 102.16 48.1144C103.173 47.6613 104.075 47.003 105.046 46.4725C105.59 46.1611 106.172 45.9203 106.778 45.7556Z" fill="#2F2E41"/>
<path opacity="0.1" d="M104.211 47.6984C103.433 48.2826 102.426 48.8196 101.655 49.4192C101.392 49.6239 97.0059 52.0898 96.9438 52.4173C97.6631 52.5385 102.245 49.3333 102.9 49.0135C103.556 48.6937 104.137 48.2426 104.713 47.795C104.859 47.6809 105.481 47.3379 105.06 47.2104C104.823 47.1386 104.386 47.5816 104.211 47.6984Z" fill="black"/>
<path d="M98.8588 28.6608H92.0308C91.7534 28.6608 91.4873 28.771 91.2912 28.9672C91.095 29.1633 90.9848 29.4294 90.9848 29.7068V30.0898H90.9106V30.9464H90.9848V31.546H90.9106V32.0599H90.9848V38.3803C90.9848 38.6577 91.095 38.9238 91.2912 39.1199C91.4873 39.3161 91.7534 39.4263 92.0308 39.4263H98.8588C99.1362 39.4263 99.4023 39.3161 99.5984 39.1199C99.7946 38.9238 99.9048 38.6577 99.9048 38.3803V29.7068C99.9048 29.4294 99.7946 29.1633 99.5984 28.9672C99.4022 28.771 99.1362 28.6608 98.8588 28.6608Z" fill="#D0CDE1"/>
<path d="M99.9441 20.5817L96.4809 18.7676L91.6984 19.5098L90.709 23.8799L93.172 23.7851L93.8601 22.1796V23.7587L94.9966 23.715L95.6563 21.1588L96.0686 23.8799L100.109 23.7974L99.9441 20.5817Z" fill="#2F2E41"/>
<path d="M88.1808 45.1897C88.3375 45.456 88.5601 45.6774 88.8272 45.8328C89.0025 45.9128 89.1937 45.9517 89.3863 45.9466C89.5789 45.9414 89.7678 45.8923 89.9385 45.803C90.2794 45.6202 90.5585 45.3404 90.7404 44.9989C91.1168 44.3343 91.1948 43.539 91.1478 42.7767C91.1008 42.0143 90.938 41.2636 90.866 40.5033C90.8136 39.9505 90.8094 39.3945 90.8052 38.8392C90.7922 38.7225 90.8166 38.6046 90.8751 38.5027C90.9757 38.4027 91.1059 38.3377 91.2463 38.3173C92.006 38.0916 92.5102 37.3797 92.8717 36.6745C93.113 36.2036 93.3229 35.6889 93.2764 35.1618C93.2298 34.6347 92.851 34.1037 92.3246 34.05C91.8906 34.0057 91.4899 34.2813 91.1768 34.5851C90.3871 35.3563 89.8796 36.3706 89.7358 37.465C89.6671 38.0009 89.6868 38.5514 89.541 39.0716C89.2298 40.1825 88.256 40.8636 87.7707 41.8632C87.236 42.9647 87.5311 44.2151 88.1808 45.1897Z" fill="#A0616A"/>
<path d="M102.511 40.9457C102.4 41.2033 102.239 41.4361 102.037 41.6304C101.835 41.8247 101.596 41.9765 101.334 42.0769C101.008 42.2076 100.649 42.2296 100.31 42.1396C100.142 42.093 99.9872 42.0082 99.8572 41.8919C99.7271 41.7756 99.6257 41.6309 99.5606 41.469C99.5088 41.3059 99.4803 41.1363 99.4762 40.9653C99.4275 40.2161 99.4463 39.4442 99.7184 38.7445C99.8234 38.4746 99.9649 38.2187 100.048 37.9413C100.129 37.6208 100.171 37.2916 100.172 36.961L100.261 34.917C100.276 34.7686 100.266 34.6188 100.231 34.4738C100.142 34.178 99.8652 33.9858 99.6115 33.8094C98.999 33.3835 98.3937 32.8864 98.0969 32.2019C97.9949 31.9959 97.9584 31.7635 97.9923 31.5361C98.0759 31.1302 98.4856 30.8674 98.8904 30.7789C99.1553 30.721 99.4292 30.7173 99.6956 30.7681C99.9619 30.8188 100.215 30.9229 100.44 31.0742C100.665 31.2255 100.857 31.4207 101.005 31.6482C101.153 31.8757 101.253 32.1307 101.299 32.3979C101.339 32.6285 101.338 32.8642 101.362 33.0971C101.412 33.5912 101.569 34.0675 101.667 34.5544C101.908 35.7536 101.783 36.9932 102.022 38.1922C102.222 39.1946 102.976 39.8488 102.511 40.9457Z" fill="#A0616A"/>
<path d="M95.5363 33.2592C96.0094 33.2592 96.3929 32.8757 96.3929 32.4026C96.3929 31.9295 96.0094 31.546 95.5363 31.546C95.0632 31.546 94.6797 31.9295 94.6797 32.4026C94.6797 32.8757 95.0632 33.2592 95.5363 33.2592Z" fill="#CE63FF"/>
<path d="M2.5273 63.1883C3.92283 63.1883 5.05412 62.0571 5.05412 60.6615C5.05412 59.266 3.92283 58.1348 2.5273 58.1348C1.13178 58.1348 0.000488281 59.266 0.000488281 60.6615C0.000488281 62.0571 1.13178 63.1883 2.5273 63.1883Z" fill="#2F2E41"/>
<path d="M11.6863 68.163L10.4136 66.9259L7.85791 67.7198L8.10338 70.6789L13.3582 70.4348L11.7439 68.2414L11.6863 68.163Z" fill="#FBBEBE"/>
<path d="M8.90304 68.1375C11.1592 68.1375 12.9882 66.3085 12.9882 64.0523C12.9882 61.7961 11.1592 59.9671 8.90304 59.9671C6.64687 59.9671 4.81787 61.7961 4.81787 64.0523C4.81787 66.3085 6.64687 68.1375 8.90304 68.1375Z" fill="#FBBEBE"/>
<path d="M34.2636 73.4063C34.2636 73.4063 39.2823 82.0311 40.4767 83.3259C41.0447 83.9631 41.6499 84.5662 42.289 85.1321C42.289 85.1321 41.7274 86.9946 40.8331 86.9281C40.3234 86.8974 39.8235 86.7742 39.3579 86.5646C39.3579 86.5646 38.9588 85.5299 38.2625 85.0761C37.5663 84.6224 31.8781 79.0264 32.0111 77.2378C32.144 75.4492 34.2636 73.4063 34.2636 73.4063Z" fill="#2F2E41"/>
<path d="M16.3906 85.7142C16.3906 85.7142 21.7417 89.8675 29.014 85.9649L29.6407 85.5037C29.6407 85.5037 28.5831 87.8829 28.4849 88.528C28.3712 89.2759 25.6176 93.6573 25.1682 93.8672C24.7189 94.0771 24.6199 94.2708 24.6199 94.2708L26.5268 96.3697L27.2318 95.8508C27.2318 95.8508 29.981 91.9557 30.785 91.2432C31.5891 90.5307 35.4201 83.1827 35.4201 83.1827C35.4201 83.1827 36.8848 80.4141 33.2294 80.2058C29.5739 79.9976 27.8918 80.9939 27.8918 80.9939L21.4043 82.0245L16.3906 85.7142Z" fill="#2F2E41"/>
<path d="M42.3513 84.7241L45.0579 86.5968C45.0579 86.5968 48.5109 87.6786 46.3838 88.3986C44.2568 89.1185 38.6517 89.3789 38.5245 88.3856C38.3974 87.3923 38.7456 85.8289 39.0253 85.9144C39.3049 85.9999 41.2457 86.5038 42.3513 84.7241Z" fill="#2F2E41"/>
<path d="M27.4713 95.2074L27.9723 97.9584C27.9723 97.9584 29.3967 100.683 27.6864 99.8374C25.9761 98.9921 22.4525 95.7813 22.9728 95.1082C23.4931 94.435 24.6416 93.705 24.7582 93.9244C24.8748 94.1437 25.738 95.6124 27.4713 95.2074Z" fill="#2F2E41"/>
<path d="M22.3103 82.9276C22.3103 82.9276 18.6728 87.1745 16.4644 86.1428C14.256 85.1112 5.22098 73.1623 6.25262 70.9539C7.28427 68.7455 7.63017 69.2155 7.63017 69.2155L12.2952 69.6469L10.953 67.4948C10.953 67.4948 11.5797 67.0336 12.1769 67.681C12.7741 68.3284 15.1717 69.9454 16.007 72.2291C16.8422 74.5128 19.2945 74.3988 19.2945 74.3988L22.3103 82.9276Z" fill="white"/>
<path d="M36.9999 74.1703L30.6944 80.8636L25.0459 70.8909L30.4157 64.403L36.9999 74.1703Z" fill="#3F3D56"/>
<path d="M36.5241 74.098L30.8291 79.9798L25.6685 70.9161L30.4012 64.9575L36.5241 74.098Z" fill="white"/>
<path d="M30.3853 80.6081L30.6942 80.8638L30.4961 81.251L21.6791 83.8752L21.5957 83.5731L21.9968 83.1583L30.3853 80.6081Z" fill="#B3B3B3"/>
<path d="M30.7726 80.8061L21.6424 83.6608L16.0767 73.144L25.0458 70.891L30.7726 80.8061Z" fill="#D0CDE1"/>
<path d="M30.0854 79.3797L29.6937 79.6679L25.3462 72.1193L25.7955 71.9094L30.0854 79.3797Z" fill="#3F3D56"/>
<path d="M29.1867 79.7995L25.3244 80.9511L20.9399 73.1881L24.7609 72.3085L29.1867 79.7995Z" fill="#3F3D56"/>
<path d="M18.3057 74.0396L19.1053 73.8134C19.1053 73.8134 23.5649 73.3092 23.63 74.7105C23.6951 76.1118 18.5068 75.4616 18.5068 75.4616L17.8149 74.5215L18.3057 74.0396Z" fill="#FBBEBE"/>
<path d="M22.2171 80.3394L23.3301 79.8826C23.3301 79.8826 26.6898 78.3762 25.726 77.3947C24.7622 76.4133 21.7898 78.1177 21.7898 78.1177L21.2207 78.6573L22.2171 80.3394Z" fill="#FBBEBE"/>
<path d="M21.2255 78.1709C21.2255 78.1709 23.0378 79.9771 22.6254 80.4014C22.2131 80.8256 15.4508 86.4059 13.7745 84.6204C12.0982 82.8349 3.93104 73.8704 7.10901 73.1016C10.287 72.3328 11.1267 74.1302 11.1267 74.1302L15.322 81.3078L21.2255 78.1709Z" fill="white"/>
<path d="M15.7987 72.6843L18.7757 73.6938L18.7271 75.843L15.5786 75.5032L15.7987 72.6843Z" fill="white"/>
<path opacity="0.2" d="M18.4819 79.2841L15.2745 81.1615L11.6099 75.5254L15.1473 80.1681L18.4819 79.2841Z" fill="black"/>
<path d="M7.10988 67.7313C9.79581 67.7313 11.9732 65.554 11.9732 62.8681C11.9732 60.1821 9.79581 58.0048 7.10988 58.0048C4.42395 58.0048 2.24658 60.1821 2.24658 62.8681C2.24658 65.554 4.42395 67.7313 7.10988 67.7313Z" fill="#2F2E41"/>
<path d="M33.3872 74.5947L29.9819 69.6133L31.4254 67.8264L34.9638 72.9514L33.3872 74.5947Z" fill="#CE63FF"/>
<path d="M33.2911 76.5976L28.1069 69.0609L28.3626 68.752L33.5226 76.3065L33.2911 76.5976Z" fill="#E6E6E6"/>
<path d="M32.6231 77.3307L27.439 69.7941L27.6947 69.4851L32.8546 77.0397L32.6231 77.3307Z" fill="#E6E6E6"/>
<path d="M32.0543 77.8703L26.8701 70.3337L27.1258 70.0248L32.2858 77.5793L32.0543 77.8703Z" fill="#E6E6E6"/>
<path d="M9.26318 59.6213H10.7676C11.5294 59.6213 12.2599 59.9239 12.7985 60.4625C13.3372 61.0011 13.6398 61.7317 13.6398 62.4934H9.26318V59.6213Z" fill="#2F2E41"/>
<path d="M29.987 57.7936L29.7143 57.7733C29.7037 57.9151 29.6961 58.0578 29.6871 58.2001L28.4629 58.1591L29.747 60.5655L31.1893 58.2503L29.9606 58.2092C29.9694 58.0707 29.9767 57.9318 29.987 57.7936Z" fill="#3F3D56"/>
<path d="M37.1675 38.1786L37.3849 38.3446C37.7111 37.9174 38.0517 37.491 38.3975 37.077L38.1875 36.9017C37.8392 37.3187 37.496 37.7483 37.1675 38.1786Z" fill="#3F3D56"/>
<path d="M39.2627 35.671L39.4646 35.8555C39.8275 35.458 40.2043 35.0634 40.5844 34.6823L40.3907 34.4891C40.0078 34.873 39.6283 35.2707 39.2627 35.671Z" fill="#3F3D56"/>
<path d="M41.5693 33.358L41.7543 33.5596C42.1512 33.1952 42.561 32.8352 42.9722 32.4897L42.7963 32.2803C42.382 32.6283 41.9692 32.991 41.5693 33.358Z" fill="#3F3D56"/>
<path d="M35.3003 40.8622L35.5315 41.0083C35.819 40.5535 36.1209 40.0985 36.4288 39.6559L36.2042 39.4996C35.894 39.9455 35.5899 40.4039 35.3003 40.8622Z" fill="#3F3D56"/>
<path d="M44.0693 31.2576L44.2359 31.4745C44.6633 31.1464 45.103 30.824 45.5427 30.5162L45.3859 30.2921C44.9428 30.6022 44.4999 30.927 44.0693 31.2576Z" fill="#3F3D56"/>
<path d="M33.6772 43.7012L33.9205 43.8262C34.1669 43.347 34.4275 42.8669 34.6949 42.3992L34.4575 42.2634C34.188 42.7346 33.9255 43.2183 33.6772 43.7012Z" fill="#3F3D56"/>
<path d="M31.0392 51.4007L30.7743 51.3326C30.6391 51.8574 30.514 52.3926 30.4023 52.9233L30.67 52.9797C30.7809 52.4529 30.9051 51.9216 31.0392 51.4007Z" fill="#3F3D56"/>
<path d="M46.7437 29.3858L46.8904 29.6166C47.3438 29.3281 47.81 29.0458 48.2759 28.7775L48.1394 28.5405C47.67 28.8108 47.2004 29.0951 46.7437 29.3858Z" fill="#3F3D56"/>
<path d="M30.3713 54.5735L30.1013 54.5292C30.0135 55.0631 29.9364 55.6073 29.8721 56.1464L30.1437 56.1788C30.2075 55.6437 30.2841 55.1036 30.3713 54.5735Z" fill="#3F3D56"/>
<path d="M32.312 46.6748L32.5654 46.7777C32.7682 46.2785 32.9852 45.7769 33.2102 45.2868L32.9617 45.1726C32.7349 45.6664 32.5163 46.1718 32.312 46.6748Z" fill="#3F3D56"/>
<path d="M31.2163 49.76L31.478 49.8398C31.6357 49.3237 31.8071 48.8044 31.9875 48.2964L31.7297 48.2049C31.548 48.7166 31.3753 49.2399 31.2163 49.76Z" fill="#3F3D56"/>
<path d="M65.2471 23.9338C65.7834 23.9152 66.3294 23.9078 66.8695 23.9129L66.8719 23.6394C66.3281 23.6343 65.7778 23.6417 65.2378 23.6604L65.2471 23.9338Z" fill="#3F3D56"/>
<path d="M49.5708 27.7581L49.6966 28.0009C50.1743 27.7534 50.6633 27.5136 51.1501 27.2881L51.0351 27.0399C50.5447 27.2671 50.052 27.5087 49.5708 27.7581Z" fill="#3F3D56"/>
<path d="M71.7197 24.2748C72.2533 24.3504 72.7919 24.4388 73.3204 24.5377L73.3706 24.2688C72.8382 24.1692 72.2957 24.08 71.7579 24.004L71.7197 24.2748Z" fill="#3F3D56"/>
<path d="M74.9077 24.8714C75.4316 24.9937 75.9602 25.1297 76.4787 25.2754L76.5527 25.0121C76.0303 24.8652 75.4978 24.7283 74.97 24.605L74.9077 24.8714Z" fill="#3F3D56"/>
<path d="M78.0298 25.7491C78.5405 25.9176 79.0549 26.1001 79.5584 26.2915L79.6556 26.0358C79.1482 25.843 78.6301 25.6591 78.1155 25.4894L78.0298 25.7491Z" fill="#3F3D56"/>
<path d="M68.4907 23.9625C69.0294 23.9908 69.5736 24.0314 70.1086 24.0831L70.135 23.8109C69.5961 23.7587 69.0477 23.7178 68.5051 23.6894L68.4907 23.9625Z" fill="#3F3D56"/>
<path d="M61.981 23.9164L62.0143 24.1879C62.5474 24.1223 63.0902 24.0676 63.6275 24.0254L63.6061 23.7527C63.0647 23.7952 62.5179 23.8503 61.981 23.9164Z" fill="#3F3D56"/>
<path d="M55.6001 25.2847L55.681 25.546C56.1951 25.3869 56.7196 25.2371 57.2403 25.101L57.1711 24.8364C56.6466 24.9735 56.118 25.1243 55.6001 25.2847Z" fill="#3F3D56"/>
<path d="M52.5293 26.3877L52.6331 26.6408C53.1305 26.4367 53.6385 26.2414 54.1431 26.0601L54.0506 25.8027C53.5422 25.9853 53.0304 26.1821 52.5293 26.3877Z" fill="#3F3D56"/>
<path d="M58.7603 24.4585L58.8176 24.726C59.3431 24.6133 59.8788 24.5108 60.4102 24.4214L60.3648 24.1516C59.8295 24.2418 59.2896 24.345 58.7603 24.4585Z" fill="#3F3D56"/>
<path d="M83.6395 27.9827L82.111 25.7238L81.5735 26.8301C81.4434 26.772 81.314 26.7127 81.184 26.6564L81.0753 26.9075C81.2022 26.9624 81.3277 27.02 81.4539 27.0763L80.9189 28.1774L83.6395 27.9827Z" fill="#3F3D56"/>
</g>
<defs>
<clipPath id="clip0">
<rect width="123.844" height="100" fill="white"/>
</clipPath>
</defs>
</svg>
