<svg width="173" height="100" viewBox="0 0 173 100" fill="none" xmlns="http://www.w3.org/2000/svg">
<g clip-path="url(#clip0)">
<path d="M171.017 89.0241H0V89.4219H171.017V89.0241Z" fill="#3F3D56"/>
<path d="M22.1297 17.1626C20.6613 13.6978 16.9233 13.0435 16.9233 13.0435C16.9233 13.0435 13.3242 12.0833 10.3185 16.6561C7.51696 20.9182 3.90416 24.9115 8.48589 26.6127L9.69616 24.0709L9.84135 26.9961C10.5076 27.1348 11.1809 27.237 11.8584 27.3022C16.9404 27.8185 21.731 28.6769 21.8197 26.8403C21.9377 24.3988 23.5426 20.4963 22.1297 17.1626Z" fill="#2F2E41"/>
<path d="M6.62487 44.9089L6.29786 53.2477C6.29786 53.2477 2.86422 59.9515 5.64383 59.788C8.42345 59.6245 8.09643 53.2477 8.09643 53.2477L9.07747 45.3994L6.62487 44.9089Z" fill="#FFB8B8"/>
<path d="M25.4282 43.4373L26.4092 51.7761C26.4092 51.7761 29.3523 56.1908 27.0632 57.6623C24.7741 59.1339 24.7741 52.4301 24.7741 52.4301L22.3215 43.9278L25.4282 43.4373Z" fill="#FFB8B8"/>
<path d="M21.9944 58.9704L19.0513 70.4159C19.0513 70.4159 17.7433 74.994 15.9447 77.2831L15.2907 78.5912L12.6746 78.2642L14.4731 70.9064L15.6177 57.3353L21.9944 58.9704Z" fill="#FFB8B8"/>
<path opacity="0.1" d="M21.9944 58.9704L19.0513 70.4159C19.0513 70.4159 17.7433 74.994 15.9447 77.2831L15.2907 78.5912L12.6746 78.2642L14.4731 70.9064L15.6177 57.3353L21.9944 58.9704Z" fill="black"/>
<path d="M12.0274 76.4388L16.4989 77.4741L14.656 81.8185C14.656 81.8185 15.405 84.4193 14.6915 85.7966C13.978 87.1739 14.081 89.673 14.081 89.673L13.1119 89.5203C13.1119 89.5203 10.759 93.9499 7.97894 92.6844C5.19886 91.4189 8.15582 88.4087 8.15582 88.4087C8.15582 88.4087 10.5596 83.6561 10.8648 81.7179C11.1701 79.7797 12.0274 76.4388 12.0274 76.4388Z" fill="#2F2E41"/>
<path opacity="0.1" d="M12.0274 76.4388L16.4989 77.4741L14.656 81.8185C14.656 81.8185 15.405 84.4193 14.6915 85.7966C13.978 87.1739 14.081 89.673 14.081 89.673L13.1119 89.5203C13.1119 89.5203 10.759 93.9499 7.97894 92.6844C5.19886 91.4189 8.15582 88.4087 8.15582 88.4087C8.15582 88.4087 10.5596 83.6561 10.8648 81.7179C11.1701 79.7797 12.0274 76.4388 12.0274 76.4388Z" fill="black"/>
<path d="M8.25977 56.5178L10.7124 68.7808C10.7124 68.7808 9.89483 74.8306 10.8759 78.5912L11.8569 82.1884H15.127V68.9443C15.127 68.9443 15.2905 58.1529 14.8 57.3353C14.3095 56.5178 8.25977 56.5178 8.25977 56.5178Z" fill="#FFB8B8"/>
<path d="M15.7813 80.8802L11.2031 81.2073L12.3477 85.7854C12.3477 85.7854 11.2031 88.238 11.6936 89.7096C12.1842 91.1812 11.6936 93.6338 11.6936 93.6338H12.6747C12.6747 93.6338 14.3098 98.3755 17.2529 97.5579C20.196 96.7404 17.7434 93.3068 17.7434 93.3068C17.7434 93.3068 16.1083 88.238 16.1083 86.276C16.1083 84.3139 15.7813 80.8802 15.7813 80.8802Z" fill="#2F2E41"/>
<path d="M16.9257 24.307C19.3638 24.307 21.3403 22.3305 21.3403 19.8924C21.3403 17.4542 19.3638 15.4777 16.9257 15.4777C14.4875 15.4777 12.511 17.4542 12.511 19.8924C12.511 22.3305 14.4875 24.307 16.9257 24.307Z" fill="#FFB8B8"/>
<path d="M13.9008 21.6091C13.9008 21.6091 14.2278 27.1684 13.2468 27.4954C12.2657 27.8224 18.3155 27.4954 18.3155 27.4954C18.3155 27.4954 17.4979 24.0617 18.3155 23.0807C19.133 22.0997 13.9008 21.6091 13.9008 21.6091Z" fill="#FFB8B8"/>
<path d="M18.3973 26.5961C18.3973 26.5961 14.1461 26.2691 13.3286 26.5961C12.511 26.9231 10.2219 28.5582 10.2219 28.5582L11.3665 38.8591L20.6863 40.8212L22.1579 38.6956L23.6295 35.5889L22.9754 31.6648L22.8119 29.3757L18.3973 26.5961Z" fill="#1F59BB"/>
<path d="M9.40448 29.2122C9.40448 29.2122 7.27889 29.7027 7.11538 31.3378C6.95188 32.9729 6.95188 37.0605 7.11538 37.7145C7.27889 38.3686 7.11538 38.6956 6.95188 38.8591C6.78837 39.0226 6.46136 38.6956 6.78837 39.1861C7.11538 39.6766 7.11538 39.6766 6.95188 40.1671C6.78837 40.6577 6.29785 40.0036 6.62486 40.8212C6.95187 41.6387 7.11538 41.8022 6.95188 41.9657C6.78837 42.1292 6.29785 45.8899 6.29785 45.8899L9.07746 46.3804L11.8571 36.7335L9.40448 29.2122Z" fill="#1F59BB"/>
<path d="M22.158 29.2122C22.4685 29.2295 22.7687 29.3296 23.0275 29.5021C23.2862 29.6747 23.4941 29.9133 23.6295 30.1932C24.12 31.1743 25.4281 37.551 25.2646 38.0415C25.1011 38.5321 24.7741 37.878 25.1011 38.8591C25.4281 39.8401 25.1011 39.6766 25.2646 40.3306C25.4281 40.9847 24.6106 40.3306 25.2646 40.9847C25.9186 41.6387 26.2456 41.8022 25.9186 42.1292C25.5916 42.4562 25.1011 41.8022 25.5916 42.4562C26.0821 43.1102 26.0821 44.0913 26.0821 44.0913L22.158 44.9088L21.0134 35.7525L22.158 29.2122Z" fill="#1F59BB"/>
<path d="M8.89254 28.9522L9.69578 28.5506C9.777 28.5099 9.86546 28.4858 9.95605 28.4796C10.0466 28.4734 10.1376 28.4851 10.2236 28.5142C10.3096 28.5433 10.389 28.5892 10.4572 28.6491C10.5254 28.7091 10.5811 28.7819 10.621 28.8635L14.3096 36.4065L18.3972 39.0226L21.3404 37.7145C21.3404 37.7145 23.466 34.4444 22.8119 32.8093C22.3685 31.7007 21.849 29.9951 21.5605 29.0116C21.5435 28.9537 21.5449 28.892 21.5642 28.8349C21.5836 28.7778 21.6201 28.728 21.6688 28.6924C21.7174 28.6567 21.7758 28.6369 21.8361 28.6356C21.8964 28.6343 21.9557 28.6517 22.0058 28.6852L22.5631 29.0568C22.7415 29.1757 22.8658 29.3601 22.9092 29.57L24.12 35.4254L22.4849 38.8591V42.1292L23.6295 59.7879C23.6295 59.7879 19.3783 59.1339 15.1271 58.3163C10.8759 57.4988 5.48022 56.8448 5.48022 56.8448C5.48022 56.8448 8.25984 42.4562 10.5489 40.0036C10.5489 40.0036 10.5489 38.205 10.8759 38.0415C11.203 37.878 11.53 36.7335 11.53 36.7335L8.56827 29.8385C8.49902 29.6773 8.49402 29.4957 8.55431 29.3309C8.6146 29.1662 8.7356 29.0306 8.89254 28.9522Z" fill="#2F2E41"/>
<path d="M21.2993 15.9038L17.5533 13.9416L12.3801 14.7444L11.3098 19.4716L13.9742 19.369L14.7184 17.6324V19.3404L15.9479 19.2932L16.6614 16.5282L17.1073 19.4716L21.4777 19.3823L21.2993 15.9038Z" fill="#2F2E41"/>
<path d="M12.4292 20.7507C12.7001 20.7507 12.9198 20.3664 12.9198 19.8923C12.9198 19.4182 12.7001 19.0339 12.4292 19.0339C12.1583 19.0339 11.9387 19.4182 11.9387 19.8923C11.9387 20.3664 12.1583 20.7507 12.4292 20.7507Z" fill="#FFB8B8"/>
<path d="M143.838 0H33.437V56.6216H143.838V0Z" fill="#3F3D56"/>
<path d="M80.7648 31.1922H57.8752C57.8411 31.1922 57.8074 31.1855 57.776 31.1724C57.7445 31.1594 57.7159 31.1403 57.6919 31.1163C57.6678 31.0922 57.6487 31.0636 57.6357 31.0321C57.6227 31.0007 57.616 30.967 57.616 30.9329V21.7772C57.616 21.7431 57.6227 21.7094 57.6357 21.678C57.6487 21.6465 57.6678 21.6179 57.6919 21.5939C57.7159 21.5698 57.7445 21.5507 57.776 21.5377C57.8074 21.5246 57.8411 21.518 57.8752 21.518H80.7648C80.7988 21.5179 80.8326 21.5246 80.864 21.5377C80.8955 21.5507 80.9241 21.5698 80.9481 21.5938C80.9722 21.6179 80.9913 21.6465 81.0043 21.678C81.0173 21.7094 81.024 21.7431 81.024 21.7772V30.9329C81.024 30.967 81.0173 31.0007 81.0043 31.0322C80.9913 31.0636 80.9722 31.0922 80.9481 31.1163C80.9241 31.1403 80.8955 31.1594 80.864 31.1725C80.8326 31.1855 80.7988 31.1922 80.7648 31.1922ZM58.1344 30.6737H80.5056V22.0364H58.1344V30.6737Z" fill="white"/>
<path d="M67.6033 37.2008H57.8752C57.8411 37.2008 57.8074 37.1941 57.776 37.1811C57.7445 37.168 57.7159 37.149 57.6919 37.1249C57.6678 37.1008 57.6487 37.0722 57.6357 37.0408C57.6227 37.0093 57.616 36.9756 57.616 36.9416V33.0502C57.616 33.0162 57.6227 32.9825 57.6357 32.951C57.6487 32.9196 57.6678 32.891 57.6919 32.8669C57.7159 32.8428 57.7445 32.8237 57.776 32.8107C57.8074 32.7977 57.8411 32.791 57.8752 32.791H67.6033C67.6373 32.791 67.6711 32.7977 67.7025 32.8107C67.734 32.8237 67.7626 32.8428 67.7866 32.8669C67.8107 32.891 67.8298 32.9195 67.8428 32.951C67.8558 32.9825 67.8625 33.0162 67.8625 33.0502V36.9416C67.8625 36.9756 67.8558 37.0093 67.8428 37.0408C67.8298 37.0722 67.8107 37.1008 67.7866 37.1249C67.7626 37.149 67.734 37.1681 67.7025 37.1811C67.6711 37.1941 67.6373 37.2008 67.6033 37.2008ZM58.1344 36.6823H67.3441V33.3094H58.1344V36.6823Z" fill="white"/>
<path d="M80.7647 37.2008H71.0366C71.0025 37.2008 70.9688 37.1941 70.9373 37.1811C70.9059 37.1681 70.8773 37.149 70.8532 37.1249C70.8291 37.1008 70.8101 37.0722 70.797 37.0408C70.784 37.0093 70.7773 36.9756 70.7773 36.9416V33.0502C70.7773 33.0162 70.784 32.9825 70.797 32.951C70.8101 32.9195 70.8291 32.891 70.8532 32.8669C70.8773 32.8428 70.9059 32.8237 70.9373 32.8107C70.9688 32.7977 71.0025 32.791 71.0366 32.791H80.7647C80.7987 32.791 80.8324 32.7977 80.8639 32.8107C80.8953 32.8237 80.9239 32.8428 80.948 32.8669C80.9721 32.891 80.9912 32.9195 81.0042 32.951C81.0172 32.9825 81.0239 33.0162 81.0239 33.0502V36.9416C81.0239 36.9756 81.0172 37.0093 81.0042 37.0408C80.9912 37.0722 80.9721 37.1008 80.948 37.1249C80.9239 37.149 80.8953 37.1681 80.8639 37.1811C80.8324 37.1941 80.7987 37.2008 80.7647 37.2008ZM71.2958 36.6823H80.5054V33.3094H71.2958V36.6823Z" fill="white"/>
<path d="M80.4787 30.9061C80.4463 30.906 80.4142 30.8999 80.384 30.8881L57.7805 22.0184C57.7488 22.006 57.7198 21.9874 57.6953 21.9638C57.6708 21.9402 57.6512 21.912 57.6376 21.8808C57.624 21.8496 57.6166 21.816 57.616 21.782C57.6154 21.748 57.6214 21.7142 57.6339 21.6825C57.6463 21.6508 57.6649 21.6219 57.6885 21.5974C57.7121 21.5729 57.7403 21.5532 57.7715 21.5396C57.8027 21.526 57.8362 21.5187 57.8703 21.518C57.9043 21.5174 57.9381 21.5235 57.9698 21.5359L80.5734 30.4056C80.6296 30.4277 80.6763 30.4687 80.7055 30.5215C80.7347 30.5743 80.7445 30.6357 80.7333 30.695C80.7221 30.7544 80.6905 30.8079 80.644 30.8464C80.5975 30.885 80.5391 30.906 80.4787 30.9061Z" fill="white"/>
<path d="M57.8754 31.1921C57.8151 31.1921 57.7567 31.1712 57.7102 31.1328C57.6637 31.0945 57.6321 31.0411 57.6207 30.982C57.6092 30.9228 57.6188 30.8615 57.6477 30.8086C57.6766 30.7557 57.723 30.7145 57.7789 30.6922L80.6686 21.5364C80.7324 21.5111 80.8037 21.5121 80.8667 21.5392C80.9298 21.5664 80.9795 21.6174 81.005 21.6812C81.0305 21.7449 81.0296 21.8162 81.0026 21.8793C80.9756 21.9424 80.9247 21.9923 80.861 22.0179L57.9716 31.1736C57.941 31.1859 57.9083 31.1922 57.8754 31.1921Z" fill="white"/>
<path d="M67.4602 37.0577C67.4277 37.0577 67.3955 37.0516 67.3653 37.0398L57.9231 33.32C57.8592 33.2948 57.808 33.2451 57.7807 33.1821C57.7534 33.1191 57.7521 33.0478 57.7773 32.9839C57.8025 32.92 57.852 32.8687 57.915 32.8413C57.978 32.8138 58.0492 32.8125 58.1132 32.8376L67.5551 36.5573C67.6113 36.5794 67.658 36.6204 67.6872 36.6733C67.7163 36.7261 67.7262 36.7875 67.7149 36.8468C67.7037 36.9061 67.672 36.9597 67.6255 36.9982C67.579 37.0367 67.5206 37.0577 67.4602 37.0577Z" fill="white"/>
<path d="M58.0183 37.0578C57.9573 37.0578 57.8983 37.0363 57.8516 36.9972C57.8049 36.958 57.7735 36.9036 57.763 36.8436C57.7524 36.7836 57.7633 36.7217 57.7938 36.669C57.8243 36.6162 57.8724 36.5759 57.9297 36.555L67.3717 33.1216C67.4038 33.1098 67.4378 33.1045 67.4719 33.1058C67.506 33.1072 67.5395 33.1153 67.5704 33.1297C67.6014 33.144 67.6292 33.1644 67.6523 33.1895C67.6754 33.2147 67.6933 33.2441 67.7049 33.2762C67.7166 33.3082 67.7218 33.3423 67.7203 33.3764C67.7187 33.4105 67.7105 33.4439 67.696 33.4748C67.6815 33.5057 67.6611 33.5334 67.6358 33.5564C67.6106 33.5794 67.5811 33.5971 67.5489 33.6087L58.1069 37.0421C58.0785 37.0524 58.0485 37.0578 58.0183 37.0578Z" fill="white"/>
<path d="M80.6216 37.0578C80.5905 37.0578 80.5596 37.0522 80.5304 37.0413L71.3747 33.6079C71.3103 33.5838 71.2582 33.535 71.2297 33.4724C71.2013 33.4098 71.1989 33.3384 71.2231 33.274C71.2473 33.2096 71.296 33.1575 71.3586 33.1291C71.4213 33.1006 71.4926 33.0982 71.557 33.1224L80.7127 36.5558C80.7696 36.5771 80.8172 36.6177 80.8471 36.6706C80.8771 36.7234 80.8876 36.7851 80.8767 36.8448C80.8659 36.9046 80.8344 36.9586 80.7878 36.9976C80.7411 37.0365 80.6823 37.0578 80.6216 37.0578Z" fill="white"/>
<path d="M71.4659 36.7717C71.4046 36.7717 71.3453 36.75 71.2985 36.7103C71.2517 36.6707 71.2204 36.6158 71.2103 36.5553C71.2002 36.4948 71.2119 36.4327 71.2432 36.38C71.2746 36.3273 71.3236 36.2874 71.3816 36.2675L80.5374 33.1201C80.5696 33.1089 80.6037 33.1041 80.6378 33.1061C80.6718 33.1081 80.7052 33.1168 80.7359 33.1317C80.7666 33.1466 80.794 33.1674 80.8167 33.1929C80.8393 33.2185 80.8567 33.2482 80.8678 33.2805C80.8789 33.3128 80.8835 33.3469 80.8814 33.381C80.8792 33.415 80.8704 33.4483 80.8554 33.479C80.8403 33.5096 80.8194 33.537 80.7938 33.5595C80.7681 33.582 80.7383 33.5992 80.706 33.6102L71.5502 36.7576C71.5231 36.7669 71.4946 36.7717 71.4659 36.7717Z" fill="white"/>
<path d="M43.7477 16.5872C42.9787 16.5872 42.2269 16.3591 41.5875 15.9319C40.948 15.5046 40.4497 14.8973 40.1554 14.1869C39.8611 13.4764 39.7841 12.6945 39.9341 11.9403C40.0841 11.186 40.4544 10.4932 40.9982 9.94941C41.542 9.40562 42.2349 9.0353 42.9891 8.88527C43.7434 8.73524 44.5252 8.81224 45.2357 9.10654C45.9462 9.40083 46.5534 9.89921 46.9807 10.5386C47.408 11.1781 47.636 11.9298 47.636 12.6989C47.6349 13.7298 47.2248 14.7181 46.4959 15.447C45.7669 16.176 44.7786 16.586 43.7477 16.5872ZM43.7477 9.329C43.0812 9.329 42.4297 9.52664 41.8755 9.89692C41.3213 10.2672 40.8894 10.7935 40.6343 11.4093C40.3793 12.025 40.3125 12.7026 40.4426 13.3563C40.5726 14.01 40.8935 14.6104 41.3648 15.0817C41.8361 15.553 42.4366 15.8739 43.0903 16.004C43.7439 16.134 44.4215 16.0673 45.0373 15.8122C45.653 15.5572 46.1793 15.1252 46.5496 14.5711C46.9199 14.0169 47.1176 13.3654 47.1176 12.6989C47.1165 11.8054 46.7612 10.9489 46.1294 10.3171C45.4977 9.68537 44.6411 9.33001 43.7477 9.329Z" fill="white"/>
<path d="M69.4105 16.5872C68.6415 16.5872 67.8897 16.3591 67.2503 15.9319C66.6109 15.5046 66.1125 14.8973 65.8182 14.1869C65.5239 13.4764 65.4469 12.6945 65.5969 11.9403C65.747 11.186 66.1173 10.4932 66.6611 9.94941C67.2049 9.40562 67.8977 9.0353 68.652 8.88527C69.4062 8.73524 70.188 8.81224 70.8985 9.10654C71.609 9.40083 72.2163 9.89921 72.6436 10.5386C73.0708 11.1781 73.2989 11.9298 73.2989 12.6989C73.2977 13.7298 72.8877 14.7181 72.1587 15.4471C71.4298 16.176 70.4414 16.586 69.4105 16.5872ZM69.4105 9.329C68.744 9.329 68.0925 9.52663 67.5383 9.89692C66.9842 10.2672 66.5522 10.7935 66.2972 11.4093C66.0421 12.025 65.9754 12.7026 66.1054 13.3563C66.2354 14.01 66.5564 14.6104 67.0277 15.0817C67.4989 15.553 68.0994 15.8739 68.7531 16.004C69.4068 16.134 70.0844 16.0673 70.7001 15.8122C71.3159 15.5572 71.8422 15.1252 72.2125 14.5711C72.5828 14.0169 72.7804 13.3654 72.7804 12.6989C72.7794 11.8054 72.424 10.9489 71.7923 10.3172C71.1605 9.6854 70.304 9.33003 69.4105 9.329Z" fill="white"/>
<path d="M101.295 16.5872C100.526 16.5872 99.7738 16.3591 99.1343 15.9319C98.4949 15.5046 97.9965 14.8973 97.7022 14.1869C97.4079 13.4764 97.3309 12.6945 97.481 11.9403C97.631 11.186 98.0013 10.4932 98.5451 9.94941C99.0889 9.40562 99.7817 9.0353 100.536 8.88527C101.29 8.73524 102.072 8.81224 102.783 9.10654C103.493 9.40083 104.1 9.89921 104.528 10.5386C104.955 11.1781 105.183 11.9298 105.183 12.6989C105.182 13.7298 104.772 14.7181 104.043 15.4471C103.314 16.176 102.325 16.586 101.295 16.5872ZM101.295 9.329C100.628 9.32899 99.9765 9.52663 99.4224 9.89692C98.8682 10.2672 98.4363 10.7935 98.1812 11.4093C97.9261 12.025 97.8594 12.7026 97.9894 13.3563C98.1195 14.01 98.4404 14.6104 98.9117 15.0817C99.383 15.553 99.9834 15.8739 100.637 16.004C101.291 16.134 101.968 16.0673 102.584 15.8122C103.2 15.5572 103.726 15.1252 104.096 14.5711C104.467 14.0169 104.664 13.3654 104.664 12.6989C104.663 11.8054 104.308 10.9489 103.676 10.3172C103.045 9.68541 102.188 9.33003 101.295 9.329Z" fill="white"/>
<path d="M134.699 16.5872C133.93 16.5872 133.178 16.3591 132.539 15.9319C131.899 15.5046 131.401 14.8973 131.107 14.1869C130.812 13.4764 130.735 12.6945 130.886 11.9403C131.036 11.186 131.406 10.4932 131.95 9.94941C132.493 9.40562 133.186 9.0353 133.941 8.88527C134.695 8.73524 135.477 8.81224 136.187 9.10654C136.898 9.40083 137.505 9.89921 137.932 10.5386C138.359 11.1781 138.587 11.9298 138.587 12.6989C138.586 13.7298 138.176 14.7181 137.447 15.4471C136.718 16.176 135.73 16.586 134.699 16.5872ZM134.699 9.329C134.033 9.329 133.381 9.52664 132.827 9.89692C132.273 10.2672 131.841 10.7935 131.586 11.4093C131.331 12.025 131.264 12.7026 131.394 13.3563C131.524 14.01 131.845 14.6104 132.316 15.0817C132.788 15.553 133.388 15.8739 134.042 16.004C134.695 16.134 135.373 16.0673 135.989 15.8122C136.604 15.5572 137.131 15.1252 137.501 14.5711C137.871 14.0169 138.069 13.3654 138.069 12.6989C138.068 11.8054 137.713 10.9489 137.081 10.3171C136.449 9.6854 135.593 9.33003 134.699 9.329Z" fill="white"/>
<path d="M68.7227 13.899V13.7028L68.973 13.4596C69.576 12.8859 69.8484 12.5806 69.8519 12.225C69.8584 12.1622 69.8506 12.0988 69.8293 12.0394C69.8079 11.9801 69.7735 11.9262 69.7285 11.882C69.6835 11.8377 69.6292 11.8041 69.5695 11.7837C69.5098 11.7633 69.4463 11.7565 69.3836 11.764C69.1986 11.7708 69.0215 11.8413 68.8824 11.9635L68.7806 11.7384C68.9682 11.5823 69.2049 11.4974 69.4489 11.4987C69.5428 11.4903 69.6374 11.5021 69.7264 11.5331C69.8154 11.5642 69.8968 11.6138 69.9651 11.6787C70.0335 11.7436 70.0872 11.8223 70.1228 11.9096C70.1583 11.9969 70.1749 12.0908 70.1714 12.185C70.1714 12.6206 69.8555 12.973 69.3581 13.4522L69.1692 13.6266V13.6337H70.2296V13.899H68.7227Z" fill="white"/>
<path d="M43.6616 11.8164H43.6543L43.244 12.0379L43.1824 11.7946L43.6979 11.5187H43.9703V13.879H43.6616V11.8164Z" fill="white"/>
<path d="M134.932 13.8789V13.2364H133.835V13.0258L134.888 11.5188H135.233V12.9858H135.563V13.2364H135.233V13.8789H134.932ZM134.932 12.9858V12.198C134.932 12.0745 134.935 11.9509 134.943 11.8274H134.932C134.859 11.9656 134.801 12.0671 134.736 12.1762L134.158 12.9784V12.9858L134.932 12.9858Z" fill="white"/>
<path d="M100.895 13.5122C101.054 13.606 101.234 13.6572 101.418 13.661C101.829 13.661 101.956 13.3995 101.952 13.2036C101.949 12.873 101.651 12.7315 101.342 12.7315H101.164V12.4918H101.342C101.575 12.4918 101.869 12.372 101.869 12.0923C101.869 11.9034 101.749 11.7364 101.455 11.7364C101.285 11.7411 101.121 11.7955 100.983 11.8928L100.899 11.6604C101.083 11.5408 101.297 11.4776 101.516 11.4787C101.981 11.4787 102.192 11.7546 102.192 12.0417C102.189 12.169 102.145 12.2922 102.067 12.3924C101.988 12.4926 101.879 12.5644 101.756 12.5971V12.6044C101.902 12.6255 102.035 12.6984 102.132 12.8097C102.229 12.921 102.282 13.0633 102.282 13.2107C102.282 13.5884 101.988 13.919 101.422 13.919C101.207 13.9218 100.995 13.8665 100.808 13.759L100.895 13.5122Z" fill="white"/>
<path d="M113.426 36.9415H90.5368C90.5028 36.9415 90.4691 36.9349 90.4376 36.9218C90.4061 36.9088 90.3776 36.8897 90.3535 36.8656C90.3294 36.8416 90.3103 36.813 90.2973 36.7815C90.2843 36.7501 90.2776 36.7164 90.2776 36.6823V22.0364C90.2776 22.0023 90.2843 21.9686 90.2973 21.9371C90.3103 21.9057 90.3294 21.8771 90.3535 21.853C90.3776 21.8289 90.4061 21.8099 90.4376 21.7968C90.4691 21.7838 90.5028 21.7771 90.5368 21.7771H113.426C113.46 21.7771 113.494 21.7838 113.526 21.7968C113.557 21.8099 113.586 21.8289 113.61 21.853C113.634 21.8771 113.653 21.9057 113.666 21.9371C113.679 21.9686 113.686 22.0023 113.686 22.0364V36.6823C113.686 36.7164 113.679 36.7501 113.666 36.7815C113.653 36.813 113.634 36.8416 113.61 36.8656C113.586 36.8897 113.557 36.9088 113.526 36.9218C113.494 36.9349 113.46 36.9415 113.426 36.9415ZM90.796 36.4231H113.167V22.2956H90.796V36.4231Z" fill="white"/>
<path d="M109.33 25.0174H95.3325C95.2637 25.0174 95.1978 24.9901 95.1492 24.9415C95.1005 24.8929 95.0732 24.8269 95.0732 24.7582C95.0732 24.6894 95.1005 24.6235 95.1492 24.5749C95.1978 24.5263 95.2637 24.499 95.3325 24.499H109.33C109.399 24.499 109.465 24.5263 109.514 24.5749C109.562 24.6235 109.59 24.6894 109.59 24.7582C109.59 24.8269 109.562 24.8929 109.514 24.9415C109.465 24.9901 109.399 25.0174 109.33 25.0174Z" fill="white"/>
<path d="M109.33 27.3504H95.3324C95.2983 27.3505 95.2645 27.3439 95.233 27.3309C95.2015 27.3179 95.1728 27.2988 95.1487 27.2747C95.1245 27.2506 95.1054 27.222 95.0923 27.1905C95.0792 27.159 95.0725 27.1253 95.0725 27.0912C95.0725 27.0571 95.0792 27.0233 95.0923 26.9918C95.1054 26.9603 95.1245 26.9317 95.1487 26.9076C95.1728 26.8835 95.2015 26.8645 95.233 26.8515C95.2645 26.8385 95.2983 26.8319 95.3324 26.8319H109.33C109.399 26.8319 109.465 26.8593 109.514 26.9079C109.562 26.9565 109.59 27.0224 109.59 27.0912C109.59 27.1599 109.562 27.2259 109.514 27.2745C109.465 27.3231 109.399 27.3504 109.33 27.3504Z" fill="white"/>
<path d="M109.33 29.6834H95.3325C95.2637 29.6834 95.1978 29.656 95.1492 29.6074C95.1005 29.5588 95.0732 29.4929 95.0732 29.4241C95.0732 29.3554 95.1005 29.2895 95.1492 29.2408C95.1978 29.1922 95.2637 29.1649 95.3325 29.1649H109.33C109.399 29.1649 109.465 29.1922 109.514 29.2408C109.562 29.2895 109.59 29.3554 109.59 29.4241C109.59 29.4929 109.562 29.5588 109.514 29.6074C109.465 29.656 109.399 29.6834 109.33 29.6834Z" fill="white"/>
<path d="M109.33 32.0164H95.3324C95.2983 32.0164 95.2645 32.0098 95.233 31.9968C95.2015 31.9838 95.1728 31.9648 95.1487 31.9407C95.1245 31.9166 95.1054 31.888 95.0923 31.8565C95.0792 31.825 95.0725 31.7912 95.0725 31.7571C95.0725 31.723 95.0792 31.6893 95.0923 31.6578C95.1054 31.6263 95.1245 31.5977 95.1487 31.5736C95.1728 31.5495 95.2015 31.5304 95.233 31.5175C95.2645 31.5045 95.2983 31.4978 95.3324 31.4979H109.33C109.399 31.4979 109.465 31.5252 109.514 31.5738C109.562 31.6225 109.59 31.6884 109.59 31.7571C109.59 31.8259 109.562 31.8918 109.514 31.9404C109.465 31.989 109.399 32.0164 109.33 32.0164Z" fill="white"/>
<path d="M109.33 34.3493H95.3325C95.2637 34.3493 95.1978 34.322 95.1492 34.2734C95.1005 34.2248 95.0732 34.1589 95.0732 34.0901C95.0732 34.0214 95.1005 33.9554 95.1492 33.9068C95.1978 33.8582 95.2637 33.8309 95.3325 33.8309H109.33C109.364 33.8308 109.398 33.8374 109.43 33.8504C109.461 33.8634 109.49 33.8825 109.514 33.9066C109.538 33.9307 109.557 33.9593 109.57 33.9908C109.584 34.0223 109.59 34.056 109.59 34.0901C109.59 34.1242 109.584 34.158 109.57 34.1895C109.557 34.221 109.538 34.2496 109.514 34.2737C109.49 34.2977 109.461 34.3168 109.43 34.3298C109.398 34.3428 109.364 34.3494 109.33 34.3493Z" fill="white"/>
<path d="M38.3939 22.4971C38.4629 22.4947 38.5283 22.4656 38.5763 22.4159C38.6243 22.3662 38.6511 22.2999 38.6511 22.2308C38.6511 22.1618 38.6243 22.0954 38.5763 22.0457C38.5283 21.9961 38.4629 21.967 38.3939 21.9646C38.3249 21.967 38.2595 21.9961 38.2115 22.0457C38.1635 22.0954 38.1367 22.1618 38.1367 22.2308C38.1367 22.2999 38.1635 22.3662 38.2115 22.4159C38.2595 22.4656 38.3249 22.4947 38.3939 22.4971Z" fill="white"/>
<path d="M38.3939 25.3485C38.4629 25.3461 38.5283 25.317 38.5763 25.2673C38.6243 25.2177 38.6511 25.1513 38.6511 25.0823C38.6511 25.0132 38.6243 24.9468 38.5763 24.8972C38.5283 24.8475 38.4629 24.8184 38.3939 24.816C38.3249 24.8184 38.2595 24.8475 38.2115 24.8972C38.1635 24.9468 38.1367 25.0132 38.1367 25.0823C38.1367 25.1513 38.1635 25.2177 38.2115 25.2673C38.2595 25.317 38.3249 25.3461 38.3939 25.3485Z" fill="white"/>
<path d="M38.3939 28.1999C38.4629 28.1975 38.5283 28.1684 38.5763 28.1187C38.6243 28.0691 38.6511 28.0027 38.6511 27.9337C38.6511 27.8646 38.6243 27.7982 38.5763 27.7486C38.5283 27.6989 38.4629 27.6698 38.3939 27.6674C38.3249 27.6698 38.2595 27.6989 38.2115 27.7486C38.1635 27.7982 38.1367 27.8646 38.1367 27.9337C38.1367 28.0027 38.1635 28.0691 38.2115 28.1187C38.2595 28.1684 38.3249 28.1975 38.3939 28.1999Z" fill="white"/>
<path d="M38.3939 31.0513C38.4629 31.049 38.5283 31.0199 38.5763 30.9702C38.6243 30.9205 38.6511 30.8542 38.6511 30.7851C38.6511 30.716 38.6243 30.6497 38.5763 30.6C38.5283 30.5504 38.4629 30.5213 38.3939 30.5189C38.3249 30.5213 38.2595 30.5504 38.2115 30.6C38.1635 30.6497 38.1367 30.716 38.1367 30.7851C38.1367 30.8542 38.1635 30.9205 38.2115 30.9702C38.2595 31.0199 38.3249 31.049 38.3939 31.0513Z" fill="white"/>
<path d="M38.3939 33.9028C38.4629 33.9004 38.5283 33.8713 38.5763 33.8216C38.6243 33.7719 38.6511 33.7056 38.6511 33.6365C38.6511 33.5675 38.6243 33.5011 38.5763 33.4514C38.5283 33.4018 38.4629 33.3727 38.3939 33.3703C38.3249 33.3727 38.2595 33.4018 38.2115 33.4514C38.1635 33.5011 38.1367 33.5675 38.1367 33.6365C38.1367 33.7056 38.1635 33.7719 38.2115 33.8216C38.2595 33.8713 38.3249 33.9004 38.3939 33.9028Z" fill="white"/>
<path d="M38.3939 36.7542C38.4629 36.7518 38.5283 36.7227 38.5763 36.6731C38.6243 36.6234 38.6511 36.557 38.6511 36.488C38.6511 36.4189 38.6243 36.3526 38.5763 36.3029C38.5283 36.2532 38.4629 36.2241 38.3939 36.2217C38.3249 36.2241 38.2595 36.2532 38.2115 36.3029C38.1635 36.3526 38.1367 36.4189 38.1367 36.488C38.1367 36.557 38.1635 36.6234 38.2115 36.6731C38.2595 36.7227 38.3249 36.7518 38.3939 36.7542Z" fill="white"/>
<path d="M49.1912 22.49H40.8962C40.8274 22.49 40.7615 22.4627 40.7129 22.4141C40.6643 22.3655 40.637 22.2995 40.637 22.2308C40.637 22.162 40.6643 22.0961 40.7129 22.0475C40.7615 21.9989 40.8274 21.9716 40.8962 21.9716H49.1912C49.26 21.9716 49.3259 21.9989 49.3745 22.0475C49.4231 22.0961 49.4505 22.162 49.4505 22.2308C49.4505 22.2995 49.4231 22.3655 49.3745 22.4141C49.3259 22.4627 49.26 22.49 49.1912 22.49H49.1912Z" fill="white"/>
<path d="M49.1914 25.3414H40.8964C40.8623 25.3415 40.8285 25.3349 40.797 25.3219C40.7654 25.3089 40.7368 25.2898 40.7126 25.2657C40.6885 25.2417 40.6693 25.2131 40.6563 25.1816C40.6432 25.1501 40.6365 25.1163 40.6365 25.0822C40.6365 25.0481 40.6432 25.0144 40.6563 24.9829C40.6693 24.9514 40.6885 24.9228 40.7126 24.8987C40.7368 24.8746 40.7654 24.8555 40.797 24.8425C40.8285 24.8295 40.8623 24.8229 40.8964 24.823H49.1914C49.2255 24.8229 49.2593 24.8295 49.2908 24.8425C49.3224 24.8555 49.351 24.8746 49.3752 24.8987C49.3993 24.9228 49.4185 24.9514 49.4315 24.9829C49.4446 25.0144 49.4513 25.0481 49.4513 25.0822C49.4513 25.1163 49.4446 25.1501 49.4315 25.1816C49.4185 25.2131 49.3993 25.2417 49.3752 25.2657C49.351 25.2898 49.3224 25.3089 49.2908 25.3219C49.2593 25.3349 49.2255 25.3415 49.1914 25.3414H49.1914Z" fill="white"/>
<path d="M49.1912 28.1928H40.8962C40.8274 28.1928 40.7615 28.1655 40.7129 28.1169C40.6643 28.0683 40.637 28.0024 40.637 27.9336C40.637 27.8649 40.6643 27.7989 40.7129 27.7503C40.7615 27.7017 40.8274 27.6744 40.8962 27.6744H49.1912C49.2253 27.6743 49.2591 27.6809 49.2906 27.6939C49.3222 27.7069 49.3508 27.726 49.375 27.7501C49.3991 27.7742 49.4183 27.8028 49.4313 27.8343C49.4444 27.8658 49.4511 27.8995 49.4511 27.9336C49.4511 27.9677 49.4444 28.0015 49.4313 28.033C49.4183 28.0645 49.3991 28.0931 49.375 28.1172C49.3508 28.1412 49.3222 28.1603 49.2906 28.1733C49.2591 28.1863 49.2253 28.1929 49.1912 28.1928H49.1912Z" fill="white"/>
<path d="M49.1912 31.0443H40.8962C40.8274 31.0443 40.7615 31.017 40.7129 30.9683C40.6643 30.9197 40.637 30.8538 40.637 30.785C40.637 30.7163 40.6643 30.6504 40.7129 30.6017C40.7615 30.5531 40.8274 30.5258 40.8962 30.5258H49.1912C49.2253 30.5257 49.2591 30.5324 49.2906 30.5454C49.3222 30.5583 49.3508 30.5774 49.375 30.6015C49.3991 30.6256 49.4183 30.6542 49.4313 30.6857C49.4444 30.7172 49.4511 30.7509 49.4511 30.785C49.4511 30.8191 49.4444 30.8529 49.4313 30.8844C49.4183 30.9159 49.3991 30.9445 49.375 30.9686C49.3508 30.9927 49.3222 31.0117 49.2906 31.0247C49.2591 31.0377 49.2253 31.0444 49.1912 31.0443H49.1912Z" fill="white"/>
<path d="M49.1912 33.8957H40.8962C40.8274 33.8957 40.7615 33.8684 40.7129 33.8198C40.6643 33.7712 40.637 33.7052 40.637 33.6365C40.637 33.5677 40.6643 33.5018 40.7129 33.4532C40.7615 33.4046 40.8274 33.3773 40.8962 33.3773H49.1912C49.2253 33.3772 49.2591 33.3838 49.2906 33.3968C49.3222 33.4098 49.3508 33.4289 49.375 33.4529C49.3991 33.477 49.4183 33.5056 49.4313 33.5371C49.4444 33.5686 49.4511 33.6024 49.4511 33.6365C49.4511 33.6706 49.4444 33.7043 49.4313 33.7358C49.4183 33.7673 49.3991 33.7959 49.375 33.82C49.3508 33.8441 49.3222 33.8632 49.2906 33.8762C49.2591 33.8892 49.2253 33.8958 49.1912 33.8957H49.1912Z" fill="white"/>
<path d="M49.1914 36.7472H40.8964C40.8623 36.7473 40.8285 36.7406 40.797 36.7276C40.7654 36.7146 40.7368 36.6956 40.7126 36.6715C40.6885 36.6474 40.6693 36.6188 40.6563 36.5873C40.6432 36.5558 40.6365 36.522 40.6365 36.4879C40.6365 36.4538 40.6432 36.4201 40.6563 36.3886C40.6693 36.3571 40.6885 36.3285 40.7126 36.3044C40.7368 36.2803 40.7654 36.2612 40.797 36.2483C40.8285 36.2353 40.8623 36.2286 40.8964 36.2287H49.1914C49.2255 36.2286 49.2593 36.2353 49.2908 36.2483C49.3224 36.2612 49.351 36.2803 49.3752 36.3044C49.3993 36.3285 49.4185 36.3571 49.4315 36.3886C49.4446 36.4201 49.4513 36.4538 49.4513 36.4879C49.4513 36.522 49.4446 36.5558 49.4315 36.5873C49.4185 36.6188 49.3993 36.6474 49.3752 36.6715C49.351 36.6956 49.3224 36.7146 49.2908 36.7276C49.2593 36.7406 49.2255 36.7473 49.1914 36.7472H49.1914Z" fill="white"/>
<path d="M137.489 37.9308H131.909C131.54 37.9305 131.186 37.7837 130.925 37.5227C130.664 37.2617 130.518 36.9079 130.517 36.5388V22.1797C130.518 21.8106 130.664 21.4568 130.925 21.1958C131.186 20.9349 131.54 20.7882 131.909 20.7879H132.586C132.629 20.7879 132.671 20.7983 132.708 20.8182C132.745 20.8381 132.777 20.8669 132.801 20.902C132.825 20.9372 132.84 20.9777 132.844 21.0199C132.849 21.0621 132.843 21.1047 132.827 21.144C132.809 21.1864 132.803 21.2324 132.807 21.278C132.812 21.3235 132.828 21.3673 132.853 21.4053C132.879 21.4433 132.913 21.4746 132.954 21.4962C132.994 21.5178 133.039 21.5292 133.085 21.5293H136.266C136.312 21.5293 136.357 21.5179 136.397 21.4964C136.437 21.4749 136.472 21.4437 136.497 21.4058C136.523 21.3678 136.539 21.3242 136.543 21.2787C136.548 21.2332 136.542 21.1872 136.524 21.1448C136.508 21.1055 136.502 21.0628 136.507 21.0205C136.511 20.9782 136.526 20.9377 136.549 20.9024C136.573 20.8671 136.605 20.8383 136.643 20.8183C136.68 20.7983 136.722 20.7879 136.764 20.7879H137.489C137.858 20.7882 138.212 20.935 138.473 21.1959C138.734 21.4568 138.881 21.8106 138.881 22.1797V36.5388C138.881 36.9078 138.734 37.2617 138.473 37.5226C138.212 37.7836 137.859 37.9304 137.489 37.9308ZM131.909 21.3063C131.678 21.3065 131.456 21.3986 131.292 21.5623C131.128 21.7261 131.036 21.9481 131.036 22.1797V36.5388C131.036 36.7704 131.128 36.9925 131.292 37.1563C131.456 37.32 131.678 37.4122 131.909 37.4124H137.489C137.721 37.4121 137.943 37.32 138.107 37.1562C138.271 36.9925 138.363 36.7704 138.363 36.5388V22.1797C138.363 21.9481 138.271 21.7261 138.107 21.5624C137.943 21.3986 137.721 21.3066 137.489 21.3063H137.061C137.047 21.5075 136.957 21.6958 136.809 21.8333C136.662 21.9709 136.468 22.0475 136.266 22.0478H133.085C132.883 22.0475 132.689 21.9709 132.541 21.8333C132.394 21.6958 132.304 21.5075 132.29 21.3063H131.909Z" fill="white"/>
<path d="M126.439 29.6834H119.181C119.112 29.6834 119.046 29.6561 118.998 29.6075C118.949 29.5588 118.922 29.4929 118.922 29.4242C118.922 29.3554 118.949 29.2895 118.998 29.2409C119.046 29.1922 119.112 29.1649 119.181 29.1649H125.813L124.312 27.6633C124.263 27.6147 124.236 27.5487 124.236 27.48C124.236 27.4113 124.263 27.3453 124.312 27.2967C124.36 27.2481 124.426 27.2208 124.495 27.2208C124.564 27.2208 124.63 27.2481 124.678 27.2967L126.622 29.2409C126.659 29.2771 126.683 29.3233 126.693 29.3736C126.703 29.4239 126.698 29.476 126.678 29.5234C126.659 29.5707 126.626 29.6112 126.583 29.6397C126.54 29.6682 126.49 29.6834 126.439 29.6834V29.6834Z" fill="white"/>
<path d="M124.624 31.4979C124.573 31.4979 124.523 31.4827 124.48 31.4542C124.438 31.4257 124.404 31.3853 124.385 31.3379C124.365 31.2905 124.36 31.2384 124.37 31.1881C124.38 31.1379 124.405 31.0917 124.441 31.0554L126.255 29.2409C126.304 29.1923 126.37 29.165 126.439 29.165C126.507 29.165 126.573 29.1923 126.622 29.2409C126.671 29.2895 126.698 29.3554 126.698 29.4242C126.698 29.4929 126.671 29.5588 126.622 29.6074L124.807 31.422C124.783 31.4461 124.755 31.4652 124.723 31.4782C124.692 31.4913 124.658 31.498 124.624 31.4979Z" fill="white"/>
<path d="M139.218 51.5013H130.742C130.164 48.1576 130.164 44.7395 130.742 41.3959H139.218C138.263 44.6967 138.263 48.2005 139.218 51.5013Z" fill="#FF6584"/>
<path d="M92.1597 49.7638H100.635C101.214 46.4202 101.214 43.0021 100.635 39.6585H92.1597C93.1145 42.9592 93.1145 46.463 92.1597 49.7638Z" fill="#1F59BB"/>
<path d="M105.058 52.6059H113.534C114.112 49.2622 114.112 45.8441 113.534 42.5005H105.058C106.013 45.8013 106.013 49.3051 105.058 52.6059Z" fill="#1F59BB"/>
<path d="M99.2979 42.6027H94.1404C94.0514 42.6027 93.9792 42.4868 93.9792 42.3435C93.9792 42.2002 94.0514 42.0843 94.1404 42.0843H99.2979C99.3869 42.0843 99.4591 42.2002 99.4591 42.3435C99.4591 42.4868 99.3869 42.6027 99.2979 42.6027Z" fill="white"/>
<path d="M99.2979 45.0075H94.1404C94.0514 45.0075 93.9792 44.8915 93.9792 44.7482C93.9792 44.605 94.0514 44.489 94.1404 44.489H99.2979C99.3869 44.489 99.4591 44.605 99.4591 44.7482C99.4591 44.8915 99.3869 45.0075 99.2979 45.0075Z" fill="white"/>
<path d="M112.196 46.5378H107.039C106.95 46.5378 106.878 46.4218 106.878 46.2786C106.878 46.1353 106.95 46.0193 107.039 46.0193H112.196C112.285 46.0193 112.358 46.1353 112.358 46.2786C112.358 46.4218 112.285 46.5378 112.196 46.5378Z" fill="white"/>
<path d="M112.196 48.9426H107.039C106.95 48.9426 106.878 48.8266 106.878 48.6833C106.878 48.5401 106.95 48.4241 107.039 48.4241H112.196C112.285 48.4241 112.358 48.5401 112.358 48.6833C112.358 48.8266 112.285 48.9426 112.196 48.9426Z" fill="white"/>
<path d="M137.337 44.133H132.18C132.091 44.133 132.019 44.0171 132.019 43.8738C132.019 43.7305 132.091 43.6146 132.18 43.6146H137.337C137.426 43.6146 137.498 43.7305 137.498 43.8738C137.498 44.0171 137.426 44.133 137.337 44.133Z" fill="white"/>
<path d="M137.337 46.5378H132.18C132.091 46.5378 132.019 46.4218 132.019 46.2786C132.019 46.1353 132.091 46.0193 132.18 46.0193H137.337C137.426 46.0193 137.498 46.1353 137.498 46.2786C137.498 46.4218 137.426 46.5378 137.337 46.5378Z" fill="white"/>
<path d="M99.2979 47.4123H94.1404C94.0514 47.4123 93.9792 47.2963 93.9792 47.153C93.9792 47.0098 94.0514 46.8938 94.1404 46.8938H99.2979C99.3869 46.8938 99.4591 47.0098 99.4591 47.153C99.4591 47.2963 99.3869 47.4123 99.2979 47.4123Z" fill="white"/>
<path d="M49.5295 49.9824H58.005C58.5834 46.6388 58.5834 43.2207 58.005 39.8771H49.5295C50.4844 43.1779 50.4844 46.6817 49.5295 49.9824Z" fill="#1F59BB"/>
<path d="M56.6678 42.8213H51.5103C51.4213 42.8213 51.3491 42.7054 51.3491 42.5621C51.3491 42.4188 51.4213 42.3029 51.5103 42.3029H56.6678C56.7568 42.3029 56.8289 42.4188 56.8289 42.5621C56.8289 42.7054 56.7568 42.8213 56.6678 42.8213Z" fill="white"/>
<path d="M56.6678 45.2261H51.5103C51.4213 45.2261 51.3491 45.1101 51.3491 44.9668C51.3491 44.8236 51.4213 44.7076 51.5103 44.7076H56.6678C56.7568 44.7076 56.8289 44.8236 56.8289 44.9668C56.8289 45.1101 56.7568 45.2261 56.6678 45.2261Z" fill="white"/>
<path d="M56.6678 47.6309H51.5103C51.4213 47.6309 51.3491 47.5149 51.3491 47.3717C51.3491 47.2284 51.4213 47.1124 51.5103 47.1124H56.6678C56.7568 47.1124 56.8289 47.2284 56.8289 47.3717C56.8289 47.5149 56.7568 47.6309 56.6678 47.6309Z" fill="white"/>
<path d="M25.2129 65.9569H33.6884C34.2667 62.6133 34.2667 59.1951 33.6884 55.8515H25.2129C26.1677 59.1523 26.1677 62.6561 25.2129 65.9569Z" fill="#1F59BB"/>
<path d="M32.3511 58.7957H27.1936C27.1046 58.7957 27.0325 58.6798 27.0325 58.5365C27.0325 58.3932 27.1046 58.2773 27.1936 58.2773H32.3511C32.4401 58.2773 32.5123 58.3932 32.5123 58.5365C32.5123 58.6798 32.4401 58.7957 32.3511 58.7957Z" fill="white"/>
<path d="M32.3511 61.2005H27.1936C27.1046 61.2005 27.0325 61.0846 27.0325 60.9413C27.0325 60.798 27.1046 60.6821 27.1936 60.6821H32.3511C32.4401 60.6821 32.5123 60.798 32.5123 60.9413C32.5123 61.0846 32.4401 61.2005 32.3511 61.2005Z" fill="white"/>
<path d="M32.3511 63.6053H27.1936C27.1046 63.6053 27.0325 63.4894 27.0325 63.3461C27.0325 63.2028 27.1046 63.0869 27.1936 63.0869H32.3511C32.4401 63.0869 32.5123 63.2028 32.5123 63.3461C32.5123 63.4894 32.4401 63.6053 32.3511 63.6053Z" fill="white"/>
<path d="M142.464 47.1576C142.464 47.1576 137.256 51.2491 139.86 52.1789C142.464 53.1088 144.138 48.8314 144.138 48.8314L142.464 47.1576Z" fill="#A0616A"/>
<path d="M142.65 45.6697L141.534 47.5295C141.534 47.5295 143.394 47.5295 143.766 50.3192L145.254 48.4594L142.65 45.6697Z" fill="#CFCCE0"/>
<path d="M167.385 88.0726L167.571 93.6517L165.339 94.9537L164.409 94.3958L164.595 88.0726H167.385Z" fill="#A0616A"/>
<path d="M154.18 86.5847L154.552 92.5359L149.345 94.7677L149.717 91.606C149.717 91.606 151.205 89.1883 150.833 86.5847H154.18Z" fill="#A0616A"/>
<path d="M162.177 41.7642C162.177 41.7642 165.153 49.5752 165.711 54.4106C166.269 59.246 167.199 72.0785 167.199 72.0785L169.059 88.6304L163.851 89.3743L161.62 72.6364L156.598 56.0844L155.482 72.6364L154.552 87.7005L149.717 87.8865L149.345 72.2644L147.299 52.3649L148.415 42.8801L162.177 41.7642Z" fill="#2F2E41"/>
<path d="M164.967 94.0238C164.967 94.0238 165.272 90.9003 167.538 92.648L167.943 92.35L169.803 96.4415C169.803 96.4415 172.034 99.6031 168.129 99.9751C164.223 100.347 164.595 96.4415 164.595 96.4415L164.223 94.7677L164.409 93.6716L164.967 94.0238Z" fill="#2F2E41"/>
<path d="M154.181 90.3042C154.638 90.5659 155.018 90.9454 155.279 91.4032C155.541 91.8611 155.675 92.3806 155.668 92.9079C155.668 94.7676 155.482 94.9536 155.482 94.9536L152.693 95.6975C152.693 95.6975 150.833 95.5115 149.717 96.6274C148.601 97.7433 143.022 98.4872 143.022 96.9994C143.022 95.5115 147.671 93.0938 147.671 93.0938C147.671 93.0938 149.052 90.7621 150.036 90.9981C151.019 91.2341 151.391 91.606 151.391 91.792C151.391 91.978 150.833 93.2798 150.833 93.2798C150.833 93.2798 153.995 92.5359 154.181 90.3042Z" fill="#2F2E41"/>
<path d="M153.809 18.8891C156.376 18.8891 158.458 16.8075 158.458 14.2396C158.458 11.6718 156.376 9.59022 153.809 9.59022C151.241 9.59022 149.159 11.6718 149.159 14.2396C149.159 16.8075 151.241 18.8891 153.809 18.8891Z" fill="#A0616A"/>
<path d="M157.249 15.4485L159.295 20.0979L153.716 28.0949C153.716 28.0949 153.344 19.354 152.228 17.8662C151.112 16.3784 157.249 15.4485 157.249 15.4485Z" fill="#A0616A"/>
<path d="M154.646 25.1193L155.576 22.7016L156.319 22.8877L157.249 22.1436L158.551 18.0522L160.411 19.3541L162.829 43.7171L147.764 44.0889L149.81 27.1651L151.67 22.3296L153.012 20.555L153.902 23.2595L154.646 25.1193Z" fill="#CFCCE0"/>
<path d="M158.923 35.534L159.492 18.7109C159.492 18.7109 160.597 18.7961 160.969 19.354C161.341 19.9119 167.478 21.0278 167.478 21.0278L166.362 38.3237C166.362 38.3237 171.011 52.086 169.338 52.8299C167.664 53.5738 164.688 53.3878 164.688 53.3878L158.923 35.534Z" fill="#575A89"/>
<path d="M149.903 33.3953L151.876 22.0572L147.485 25.0263L148.601 33.2093L147.671 38.7886C147.671 38.7886 144.138 54.2247 145.254 54.7826C146.369 55.3405 147.671 54.7826 147.671 54.7826L149.903 39.1605V33.3953Z" fill="#575A89"/>
<path d="M148.787 24.6543L147.485 25.0263L146.928 32.4654L145.998 38.9746L141.534 46.9716C141.534 46.9716 143.766 45.4838 144.696 49.7612L149.611 41.2031L148.787 24.6543Z" fill="#575A89"/>
<path d="M163.293 45.6697C163.293 45.6697 158.086 49.7612 160.69 50.6911C163.293 51.621 164.967 47.3435 164.967 47.3435L163.293 45.6697Z" fill="#A0616A"/>
<path d="M166.455 47.7154L164.781 49.7612L162.55 45.8557L163.479 44.1819L166.455 47.7154Z" fill="#CFCCE0"/>
<path d="M166.083 21.6787L167.571 20.9348C167.571 20.9348 168.687 22.4226 168.873 23.7245C169.059 25.0263 169.989 26.7001 169.989 27.63C169.989 28.5599 172.592 37.3008 172.592 37.3008L166.641 49.3893C166.641 49.3893 165.339 44.9258 162.55 44.5539L167.199 38.0447L164.595 33.3953L166.083 21.6787Z" fill="#575A89"/>
<path d="M157.701 9.80977L158.578 9.45877C158.578 9.45877 156.744 7.4405 154.194 7.61601L154.911 6.82625C154.911 6.82625 153.158 6.12425 151.564 7.967C150.726 8.93569 149.756 10.0743 149.152 11.357H148.213L148.605 12.2199L147.233 13.0828L148.641 12.9278C148.557 13.4003 148.544 13.8827 148.603 14.359C148.663 14.8355 148.906 15.2699 149.281 15.5705C149.281 15.5705 150.368 13.3198 150.368 12.9688V13.8463C150.368 13.8463 151.245 13.0565 151.245 12.53L151.723 13.1443L151.962 12.179L154.911 13.1443L154.433 12.3545L156.266 12.6178L155.549 11.6525C155.549 11.6525 157.621 12.7933 157.701 13.7586C157.781 14.7238 158.387 15.6384 158.387 15.6384C158.387 15.6384 160.012 11.126 157.701 9.80977Z" fill="#2F2E41"/>
<path d="M157.621 14.1466C157.909 14.1466 158.142 13.8552 158.142 13.4957C158.142 13.1362 157.909 12.8448 157.621 12.8448C157.333 12.8448 157.1 13.1362 157.1 13.4957C157.1 13.8552 157.333 14.1466 157.621 14.1466Z" fill="#A0616A"/>
</g>
<defs>
<clipPath id="clip0">
<rect width="172.592" height="100" fill="white"/>
</clipPath>
</defs>
</svg>
