<svg width="706" height="440" viewBox="0 0 706 440" fill="none" xmlns="http://www.w3.org/2000/svg">
<g clip-path="url(#clip0)">
<path d="M172.486 276.65H114.656C111.347 276.65 108.665 279.333 108.665 282.642V298.448C108.665 301.758 111.347 304.44 114.656 304.44H172.486C175.795 304.44 178.478 301.758 178.478 298.448V282.642C178.478 279.333 175.795 276.65 172.486 276.65Z" fill="#1F59BB" fill-opacity="0.8"/>
<path d="M242.3 276.65H184.47C181.161 276.65 178.478 279.333 178.478 282.642V298.448C178.478 301.758 181.161 304.44 184.47 304.44H242.3C245.609 304.44 248.291 301.758 248.291 298.448V282.642C248.291 279.333 245.609 276.65 242.3 276.65Z" fill="#1F59BB" fill-opacity="0.82"/>
<path opacity="0.1" d="M242.3 276.65H184.47C181.161 276.65 178.478 279.333 178.478 282.642V298.448C178.478 301.758 181.161 304.44 184.47 304.44H242.3C245.609 304.44 248.291 301.758 248.291 298.448V282.642C248.291 279.333 245.609 276.65 242.3 276.65Z" fill="black"/>
<path d="M312.113 276.65H254.283C250.974 276.65 248.292 279.333 248.292 282.642V298.448C248.292 301.758 250.974 304.44 254.283 304.44H312.113C315.422 304.44 318.105 301.758 318.105 298.448V282.642C318.105 279.333 315.422 276.65 312.113 276.65Z" fill="#1F59BB" fill-opacity="0.82"/>
<path d="M381.926 276.65H324.096C320.787 276.65 318.105 279.333 318.105 282.642V298.448C318.105 301.758 320.787 304.44 324.096 304.44H381.926C385.235 304.44 387.918 301.758 387.918 298.448V282.642C387.918 279.333 385.235 276.65 381.926 276.65Z" fill="#1F59BB" fill-opacity="0.82"/>
<path opacity="0.1" d="M381.926 276.65H324.096C320.787 276.65 318.105 279.333 318.105 282.642V298.448C318.105 301.758 320.787 304.44 324.096 304.44H381.926C385.235 304.44 387.918 301.758 387.918 298.448V282.642C387.918 279.333 385.235 276.65 381.926 276.65Z" fill="black"/>
<path d="M451.739 276.65H393.91C390.601 276.65 387.918 279.333 387.918 282.642V298.448C387.918 301.758 390.601 304.44 393.91 304.44H451.739C455.049 304.44 457.731 301.758 457.731 298.448V282.642C457.731 279.333 455.049 276.65 451.739 276.65Z" fill="#1F59BB" fill-opacity="0.82"/>
<path d="M521.553 276.65H463.723C460.414 276.65 457.731 279.333 457.731 282.642V298.448C457.731 301.758 460.414 304.44 463.723 304.44H521.553C524.862 304.44 527.545 301.758 527.545 298.448V282.642C527.545 279.333 524.862 276.65 521.553 276.65Z" fill="#1F59BB" fill-opacity="0.82"/>
<path opacity="0.1" d="M521.553 276.65H463.723C460.414 276.65 457.731 279.333 457.731 282.642V298.448C457.731 301.758 460.414 304.44 463.723 304.44H521.553C524.862 304.44 527.545 301.758 527.545 298.448V282.642C527.545 279.333 524.862 276.65 521.553 276.65Z" fill="black"/>
<path d="M463.723 276.65H521.553C524.862 276.65 527.544 273.968 527.544 270.659V254.852C527.544 251.543 524.862 248.861 521.553 248.861H463.723C460.414 248.861 457.731 251.543 457.731 254.852V270.659C457.731 273.968 460.414 276.65 463.723 276.65Z" fill="#1F59BB" fill-opacity="0.82"/>
<path d="M393.91 276.65H451.739C455.049 276.65 457.731 273.968 457.731 270.659V254.852C457.731 251.543 455.049 248.861 451.739 248.861H393.91C390.6 248.861 387.918 251.543 387.918 254.852V270.659C387.918 273.968 390.6 276.65 393.91 276.65Z" fill="#1F59BB"/>
<path d="M324.096 276.65H381.926C385.235 276.65 387.918 273.968 387.918 270.659V254.852C387.918 251.543 385.235 248.861 381.926 248.861H324.096C320.787 248.861 318.105 251.543 318.105 254.852V270.659C318.105 273.968 320.787 276.65 324.096 276.65Z" fill="#1F59BB" fill-opacity="0.8"/>
<path d="M254.283 276.65H312.113C315.422 276.65 318.105 273.968 318.105 270.659V254.852C318.105 251.543 315.422 248.861 312.113 248.861H254.283C250.974 248.861 248.291 251.543 248.291 254.852V270.659C248.291 273.968 250.974 276.65 254.283 276.65Z" fill="#1F59BB"/>
<path d="M184.47 276.65H242.3C245.609 276.65 248.292 273.968 248.292 270.659V254.852C248.292 251.543 245.609 248.861 242.3 248.861H184.47C181.161 248.861 178.478 251.543 178.478 254.852V270.659C178.478 273.968 181.161 276.65 184.47 276.65Z" fill="#1F59BB" fill-opacity="0.8"/>
<path d="M114.656 276.65H172.486C175.795 276.65 178.478 273.968 178.478 270.659V254.852C178.478 251.543 175.795 248.861 172.486 248.861H114.656C111.347 248.861 108.665 251.543 108.665 254.852V270.659C108.665 273.968 111.347 276.65 114.656 276.65Z" fill="#1F59BB"/>
<path d="M172.486 221.071H114.656C111.347 221.071 108.665 223.754 108.665 227.063V242.869C108.665 246.178 111.347 248.861 114.656 248.861H172.486C175.795 248.861 178.478 246.178 178.478 242.869V227.063C178.478 223.754 175.795 221.071 172.486 221.071Z" fill="#1F59BB" fill-opacity="0.8"/>
<path d="M242.3 221.071H184.47C181.161 221.071 178.478 223.754 178.478 227.063V242.869C178.478 246.178 181.161 248.861 184.47 248.861H242.3C245.609 248.861 248.291 246.178 248.291 242.869V227.063C248.291 223.754 245.609 221.071 242.3 221.071Z" fill="#1F59BB"/>
<path opacity="0.1" d="M583.3 221.071H525.47C522.161 221.071 519.478 223.754 519.478 227.063V242.869C519.478 246.178 522.161 248.861 525.47 248.861H583.3C586.609 248.861 589.291 246.178 589.291 242.869V227.063C589.291 223.754 586.609 221.071 583.3 221.071Z" fill="black"/>
<path d="M312.113 221.071H254.283C250.974 221.071 248.292 223.754 248.292 227.063V242.869C248.292 246.178 250.974 248.861 254.283 248.861H312.113C315.422 248.861 318.105 246.178 318.105 242.869V227.063C318.105 223.754 315.422 221.071 312.113 221.071Z" fill="#1F59BB" fill-opacity="0.8"/>
<path d="M381.926 221.071H324.096C320.787 221.071 318.105 223.754 318.105 227.063V242.869C318.105 246.178 320.787 248.861 324.096 248.861H381.926C385.235 248.861 387.918 246.178 387.918 242.869V227.063C387.918 223.754 385.235 221.071 381.926 221.071Z" fill="#1F59BB"/>
<path d="M451.739 221.071H393.91C390.601 221.071 387.918 223.754 387.918 227.063V242.869C387.918 246.178 390.601 248.861 393.91 248.861H451.739C455.049 248.861 457.731 246.178 457.731 242.869V227.063C457.731 223.754 455.049 221.071 451.739 221.071Z" fill="#1F59BB" fill-opacity="0.8"/>
<path d="M521.553 221.071H463.723C460.414 221.071 457.731 223.754 457.731 227.063V242.869C457.731 246.178 460.414 248.861 463.723 248.861H521.553C524.862 248.861 527.545 246.178 527.545 242.869V227.063C527.545 223.754 524.862 221.071 521.553 221.071Z" fill="#1F59BB"/>
<path d="M463.723 221.071H521.553C524.862 221.071 527.544 218.388 527.544 215.079V199.273C527.544 195.964 524.862 193.281 521.553 193.281H463.723C460.414 193.281 457.731 195.964 457.731 199.273V215.079C457.731 218.388 460.414 221.071 463.723 221.071Z" fill="#1F59BB" fill-opacity="0.8"/>
<path d="M393.91 221.071H451.739C455.049 221.071 457.731 218.388 457.731 215.079V199.273C457.731 195.964 455.049 193.281 451.739 193.281H393.91C390.6 193.281 387.918 195.964 387.918 199.273V215.079C387.918 218.388 390.6 221.071 393.91 221.071Z" fill="#1F59BB"/>
<path d="M324.096 221.071H381.926C385.235 221.071 387.918 218.388 387.918 215.079V199.273C387.918 195.964 385.235 193.281 381.926 193.281H324.096C320.787 193.281 318.105 195.964 318.105 199.273V215.079C318.105 218.388 320.787 221.071 324.096 221.071Z" fill="#1F59BB" fill-opacity="0.8"/>
<path d="M254.283 221.071H312.113C315.422 221.071 318.105 218.388 318.105 215.079V199.273C318.105 195.964 315.422 193.281 312.113 193.281H254.283C250.974 193.281 248.291 195.964 248.291 199.273V215.079C248.291 218.388 250.974 221.071 254.283 221.071Z" fill="#1F59BB"/>
<path d="M184.47 221.071H242.3C245.609 221.071 248.292 218.388 248.292 215.079V199.273C248.292 195.964 245.609 193.281 242.3 193.281H184.47C181.161 193.281 178.478 195.964 178.478 199.273V215.079C178.478 218.388 181.161 221.071 184.47 221.071Z" fill="#1F59BB" fill-opacity="0.8"/>
<path d="M114.656 221.071H172.486C175.795 221.071 178.478 218.388 178.478 215.079V199.273C178.478 195.964 175.795 193.281 172.486 193.281H114.656C111.347 193.281 108.665 195.964 108.665 199.273V215.079C108.665 218.388 111.347 221.071 114.656 221.071Z" fill="#1F59BB"/>
<path d="M172.486 166.847H114.656C111.347 166.847 108.665 169.53 108.665 172.839V188.645C108.665 191.954 111.347 194.637 114.656 194.637H172.486C175.795 194.637 178.478 191.954 178.478 188.645V172.839C178.478 169.53 175.795 166.847 172.486 166.847Z" fill="#1F59BB" fill-opacity="0.8"/>
<path d="M242.3 166.847H184.47C181.161 166.847 178.478 169.53 178.478 172.839V188.645C178.478 191.954 181.161 194.637 184.47 194.637H242.3C245.609 194.637 248.291 191.954 248.291 188.645V172.839C248.291 169.53 245.609 166.847 242.3 166.847Z" fill="#1F59BB"/>
<path d="M312.113 166.847H254.283C250.974 166.847 248.292 169.53 248.292 172.839V188.645C248.292 191.954 250.974 194.637 254.283 194.637H312.113C315.422 194.637 318.105 191.954 318.105 188.645V172.839C318.105 169.53 315.422 166.847 312.113 166.847Z" fill="#1F59BB" fill-opacity="0.8"/>
<path d="M381.926 166.847H324.096C320.787 166.847 318.105 169.53 318.105 172.839V188.645C318.105 191.954 320.787 194.637 324.096 194.637H381.926C385.235 194.637 387.918 191.954 387.918 188.645V172.839C387.918 169.53 385.235 166.847 381.926 166.847Z" fill="#1F59BB"/>
<path d="M451.739 166.847H393.91C390.601 166.847 387.918 169.53 387.918 172.839V188.645C387.918 191.954 390.601 194.637 393.91 194.637H451.739C455.049 194.637 457.731 191.954 457.731 188.645V172.839C457.731 169.53 455.049 166.847 451.739 166.847Z" fill="#1F59BB" fill-opacity="0.8"/>
<path d="M521.553 166.847H463.723C460.414 166.847 457.731 169.53 457.731 172.839V188.645C457.731 191.954 460.414 194.637 463.723 194.637H521.553C524.862 194.637 527.545 191.954 527.545 188.645V172.839C527.545 169.53 524.862 166.847 521.553 166.847Z" fill="#1F59BB"/>
<path d="M463.723 166.847H521.553C524.862 166.847 527.544 164.164 527.544 160.855V145.049C527.544 141.74 524.862 139.057 521.553 139.057H463.723C460.414 139.057 457.731 141.74 457.731 145.049V160.855C457.731 164.164 460.414 166.847 463.723 166.847Z" fill="#1F59BB" fill-opacity="0.8"/>
<path d="M393.91 166.847H451.739C455.049 166.847 457.731 164.164 457.731 160.855V145.049C457.731 141.74 455.049 139.057 451.739 139.057H393.91C390.6 139.057 387.918 141.74 387.918 145.049V160.855C387.918 164.164 390.6 166.847 393.91 166.847Z" fill="#1F59BB"/>
<path d="M324.096 166.847H381.926C385.235 166.847 387.918 164.164 387.918 160.855V145.049C387.918 141.74 385.235 139.057 381.926 139.057H324.096C320.787 139.057 318.105 141.74 318.105 145.049V160.855C318.105 164.164 320.787 166.847 324.096 166.847Z" fill="#1F59BB" fill-opacity="0.8"/>
<path d="M254.283 166.847H312.113C315.422 166.847 318.105 164.164 318.105 160.855V145.049C318.105 141.74 315.422 139.057 312.113 139.057H254.283C250.974 139.057 248.291 141.74 248.291 145.049V160.855C248.291 164.164 250.974 166.847 254.283 166.847Z" fill="#1F59BB"/>
<path d="M184.47 166.847H242.3C245.609 166.847 248.292 164.164 248.292 160.855V145.049C248.292 141.74 245.609 139.057 242.3 139.057H184.47C181.161 139.057 178.478 141.74 178.478 145.049V160.855C178.478 164.164 181.161 166.847 184.47 166.847Z" fill="#1F59BB" fill-opacity="0.8"/>
<path d="M114.656 166.847H172.486C175.795 166.847 178.478 164.164 178.478 160.855V145.049C178.478 141.74 175.795 139.057 172.486 139.057H114.656C111.347 139.057 108.665 141.74 108.665 145.049V160.855C108.665 164.164 111.347 166.847 114.656 166.847Z" fill="#1F59BB"/>
<path d="M173.487 111.267H115.657C112.348 111.267 109.665 113.95 109.665 117.259V133.065C109.665 136.375 112.348 139.057 115.657 139.057H173.487C176.796 139.057 179.478 136.375 179.478 133.065V117.259C179.478 113.95 176.796 111.267 173.487 111.267Z" fill="#1F59BB" fill-opacity="0.82"/>
<path d="M242.3 111.268H184.47C181.161 111.268 178.478 113.95 178.478 117.259V133.066C178.478 136.375 181.161 139.057 184.47 139.057H242.3C245.609 139.057 248.291 136.375 248.291 133.066V117.259C248.291 113.95 245.609 111.268 242.3 111.268Z" fill="#1F59BB"/>
<path d="M312.113 111.268H254.283C250.974 111.268 248.292 113.95 248.292 117.259V133.066C248.292 136.375 250.974 139.057 254.283 139.057H312.113C315.422 139.057 318.105 136.375 318.105 133.066V117.259C318.105 113.95 315.422 111.268 312.113 111.268Z" fill="#1F59BB" fill-opacity="0.8"/>
<path d="M381.926 111.268H324.096C320.787 111.268 318.105 113.95 318.105 117.259V133.066C318.105 136.375 320.787 139.057 324.096 139.057H381.926C385.235 139.057 387.918 136.375 387.918 133.066V117.259C387.918 113.95 385.235 111.268 381.926 111.268Z" fill="#1F59BB"/>
<path d="M451.739 111.268H393.91C390.601 111.268 387.918 113.95 387.918 117.259V133.066C387.918 136.375 390.601 139.057 393.91 139.057H451.739C455.049 139.057 457.731 136.375 457.731 133.066V117.259C457.731 113.95 455.049 111.268 451.739 111.268Z" fill="#1F59BB" fill-opacity="0.8"/>
<path d="M521.553 111.268H463.723C460.414 111.268 457.731 113.95 457.731 117.259V133.066C457.731 136.375 460.414 139.057 463.723 139.057H521.553C524.862 139.057 527.545 136.375 527.545 133.066V117.259C527.545 113.95 524.862 111.268 521.553 111.268Z" fill="#1F59BB"/>
<path d="M521.553 18.687H458.301C454.991 18.687 452.309 21.3695 452.309 24.6787V42.6404C452.309 45.9495 454.991 48.6321 458.301 48.6321H521.553C524.862 48.6321 527.544 45.9495 527.544 42.6404V24.6787C527.544 21.3695 524.862 18.687 521.553 18.687Z" fill="url(#paint0_linear)"/>
<path d="M461.012 47.5544L518.842 47.5544C522.151 47.5544 524.833 44.8718 524.833 41.5626V25.7564C524.833 22.4472 522.151 19.7646 518.842 19.7646L461.012 19.7646C457.703 19.7646 455.02 22.4472 455.02 25.7564V41.5626C455.02 44.8718 457.703 47.5544 461.012 47.5544Z" fill="#1F59BB" fill-opacity="0.82"/>
<path d="M393.91 111.268L451.739 111.268C455.049 111.268 457.731 108.585 457.731 105.276V89.4695C457.731 86.1604 455.049 83.4778 451.739 83.4778H393.91C390.6 83.4778 387.918 86.1604 387.918 89.4695V105.276C387.918 108.585 390.6 111.268 393.91 111.268Z" fill="#1F59BB"/>
<path d="M324.096 111.267L381.926 111.267C385.235 111.267 387.918 108.585 387.918 105.276V89.4695C387.918 86.1603 385.235 83.4777 381.926 83.4777H324.096C320.787 83.4777 318.105 86.1603 318.105 89.4695V105.276C318.105 108.585 320.787 111.267 324.096 111.267Z" fill="#1F59BB" fill-opacity="0.82"/>
<path d="M254.283 111.268L312.113 111.268C315.422 111.268 318.105 108.585 318.105 105.276V89.4695C318.105 86.1604 315.422 83.4778 312.113 83.4778H254.283C250.974 83.4778 248.291 86.1604 248.291 89.4695V105.276C248.291 108.585 250.974 111.268 254.283 111.268Z" fill="#1F59BB"/>
<path d="M184.47 111.268L242.3 111.268C245.609 111.268 248.292 108.585 248.292 105.276V89.4695C248.292 86.1604 245.609 83.4778 242.3 83.4778H184.47C181.161 83.4778 178.478 86.1604 178.478 89.4695V105.276C178.478 108.585 181.161 111.268 184.47 111.268Z" fill="#1F59BB" fill-opacity="0.8"/>
<path d="M114.656 111.268L172.486 111.268C175.795 111.268 178.478 108.585 178.478 105.276V89.4695C178.478 86.1604 175.795 83.4778 172.486 83.4778H114.656C111.347 83.4778 108.665 86.1604 108.665 89.4695V105.276C108.665 108.585 111.347 111.268 114.656 111.268Z" fill="#1F59BB"/>
<path d="M338.222 440C525.016 440 676.443 405.557 676.443 363.07C676.443 320.582 525.016 286.14 338.222 286.14C151.427 286.14 0 320.582 0 363.07C0 405.557 151.427 440 338.222 440Z" fill="#F5F5F5"/>
<path d="M157.384 376.808C157.384 376.808 163.484 356.196 156.245 341.02C153.177 334.675 152.252 327.506 153.609 320.591C154.278 317.312 155.247 314.102 156.503 311" stroke="#535461" stroke-width="2" stroke-miterlimit="10"/>
<path d="M159.553 321.575C159.553 324.103 164.128 331.43 164.128 331.43C164.128 331.43 168.703 324.103 168.703 321.575C168.703 320.362 168.221 319.198 167.363 318.34C166.505 317.482 165.342 317 164.128 317C162.915 317 161.751 317.482 160.893 318.34C160.035 319.198 159.553 320.362 159.553 321.575Z" fill="#1F59BB" fill-opacity="0.82"/>
<path d="M138.722 327.042C140.077 329.163 147.919 332.823 147.919 332.823C147.919 332.823 147.777 324.188 146.401 322.067C145.738 321.055 144.702 320.348 143.519 320.098C142.336 319.849 141.102 320.078 140.088 320.735C139.073 321.393 138.36 322.425 138.104 323.607C137.848 324.788 138.07 326.023 138.722 327.042Z" fill="#1F59BB" fill-opacity="0.82"/>
<path d="M148.442 370.615C150.699 371.754 159.287 370.968 159.287 370.968C159.287 370.968 154.807 363.587 152.549 362.448C151.47 361.932 150.231 361.859 149.098 362.245C147.966 362.631 147.03 363.446 146.491 364.514C145.951 365.583 145.852 366.82 146.215 367.96C146.577 369.101 147.372 370.054 148.428 370.615H148.442Z" fill="#1F59BB" fill-opacity="0.82"/>
<path d="M156.646 377.521C158.679 379.026 167.287 379.703 167.287 379.703C167.287 379.703 164.115 371.671 162.088 370.167C161.11 369.524 159.922 369.28 158.77 369.486C157.617 369.692 156.588 370.332 155.893 371.275C155.198 372.217 154.891 373.39 155.035 374.552C155.178 375.714 155.762 376.776 156.666 377.521H156.646Z" fill="#1F59BB" fill-opacity="0.82"/>
<path d="M157.524 333.311C155.714 335.074 147.269 336.897 147.269 336.897C147.269 336.897 149.336 328.512 151.146 326.73C151.576 326.311 152.085 325.981 152.644 325.759C153.202 325.537 153.799 325.427 154.399 325.436C155 325.444 155.593 325.571 156.145 325.809C156.697 326.046 157.196 326.391 157.615 326.821C158.034 327.252 158.364 327.761 158.586 328.32C158.808 328.878 158.918 329.474 158.909 330.075C158.901 330.676 158.774 331.269 158.536 331.821C158.299 332.373 157.954 332.872 157.524 333.291V333.311Z" fill="#1F59BB" fill-opacity="0.82"/>
<path d="M175.583 362.982C173.326 364.121 164.738 363.334 164.738 363.334C164.738 363.334 169.219 355.953 171.476 354.814C172.551 354.329 173.773 354.278 174.885 354.672C175.997 355.066 176.914 355.875 177.444 356.929C177.975 357.983 178.077 359.202 177.73 360.33C177.383 361.457 176.614 362.408 175.583 362.982Z" fill="#1F59BB" fill-opacity="0.82"/>
<path d="M164.146 375.68C162.112 377.185 153.504 377.863 153.504 377.863C153.504 377.863 156.676 369.831 158.703 368.326C159.681 367.683 160.869 367.44 162.022 367.646C163.174 367.852 164.204 368.492 164.899 369.434C165.593 370.377 165.901 371.55 165.757 372.711C165.613 373.873 165.029 374.936 164.126 375.68H164.146Z" fill="#1F59BB" fill-opacity="0.82"/>
<path d="M404.632 211.731C404.632 211.731 426.925 234.024 414.338 267.1C401.752 300.177 435.913 355.214 435.913 355.214C435.913 355.214 435.547 355.16 434.869 355.038C389.084 346.925 366.337 294.558 391.795 255.666C401.257 241.202 409.031 224.243 404.632 211.731Z" fill="#1F59BB" fill-opacity="0.82"/>
<path opacity="0.2" d="M404.632 211.731C404.632 211.731 426.925 234.024 414.338 267.1C401.752 300.177 435.913 355.214 435.913 355.214C435.913 355.214 435.547 355.16 434.869 355.038C389.084 346.925 366.337 294.558 391.795 255.666C401.257 241.202 409.031 224.243 404.632 211.731Z" fill="black"/>
<path d="M404.633 211.731C404.633 211.731 417.219 239.053 404.633 261.346C392.046 283.639 402.477 346.193 435.933 355.18" stroke="#535461" stroke-miterlimit="10"/>
<path d="M364.934 301.885C364.934 301.885 390.372 297.818 392.69 320.633C395.008 343.448 441.6 346.586 441.6 346.586L440.725 347.169C402.253 372.423 365.49 363.253 371.02 329.722C373.081 317.257 372.898 304.725 364.934 301.885Z" fill="#1F59BB" fill-opacity="0.82"/>
<path opacity="0.2" d="M364.934 301.885C364.934 301.885 390.372 297.818 392.69 320.633C395.008 343.448 441.6 346.586 441.6 346.586L440.725 347.169C402.253 372.423 365.49 363.253 371.02 329.722C373.081 317.257 372.898 304.725 364.934 301.885Z" fill="#F5F5F5"/>
<path d="M364.934 301.885C364.934 301.885 384.678 306.216 383.058 324.171C381.438 342.126 412.38 363.646 441.6 346.586" stroke="#535461" stroke-miterlimit="10"/>
<path d="M558.459 354.36C558.459 354.36 520.705 346.809 510.633 336.737C500.561 326.665 455.257 309.049 450.221 321.636C445.185 334.223 382.265 377.019 425.088 384.57C467.912 392.12 525.769 394.635 538.355 389.606C550.942 384.576 558.459 354.36 558.459 354.36Z" fill="#A8A8A8"/>
<path opacity="0.2" d="M425.088 379.893C467.878 387.443 525.769 389.958 538.355 384.929C547.939 381.093 554.623 362.677 557.232 354.103L558.493 354.367C558.493 354.367 550.942 384.57 538.355 389.612C525.769 394.655 467.864 392.127 425.088 384.576C412.739 382.394 409.207 377.276 410.536 370.797C411.532 375.019 415.863 378.266 425.088 379.893Z" fill="black"/>
<path d="M634.847 19.0936C634.174 17.4169 633.101 15.9301 631.722 14.7625C621.589 5.53087 605.207 8.33018 592.627 2.68412C589.726 1.38274 586.757 -0.420207 583.612 0.0745861C579.22 0.752385 575.133 5.76809 571.303 3.54491L571.574 4.37861L571.303 4.23627L574.123 12.8172C575.207 16.1113 576.346 19.5003 578.447 22.2454C575.336 24.9583 572.955 28.408 571.522 32.2789C570.088 36.1499 569.649 40.3185 570.243 44.4033C570.837 48.4881 572.446 52.3588 574.922 55.6611C577.399 58.9635 580.664 61.5921 584.419 63.3065C584.554 63.5911 584.683 63.8826 584.812 64.174L585.171 64.3232C586.005 66.2425 586.628 68.2471 587.028 70.3013C583.768 70.7555 578.081 74.3681 572.496 79.6821L561.326 79.3093C554.101 79.0681 547.11 76.6905 541.236 72.4771L507.78 48.4491C505.397 48.6838 503.152 49.6769 501.375 51.2823C497.227 46.9579 493.702 42.4709 494 39.7597C494 39.7597 478.452 10.6618 472.799 25.2074C467.146 39.7529 483.399 55.0305 483.399 55.0305L493.709 68.39C493.302 70.7322 493.044 73.098 492.936 75.473C505.658 90.0253 550.176 103.188 550.176 103.188L557.117 103.527L557.158 103.866C556.73 105.687 556.521 107.553 556.534 109.424C556.534 109.695 556.534 109.973 556.534 110.258C556.534 110.542 556.534 110.63 556.534 110.813C556.886 134.021 560.065 205.027 560.065 205.027C560.682 204.75 561.326 204.499 561.977 204.262L561.482 210.572C561.482 210.572 531.801 214.727 509.895 223.043C487.988 231.36 487.283 241.059 487.283 241.059V326.638C481.027 329.851 471.152 334.094 466.082 331.81C460.578 329.356 457.562 331.417 457.013 333.565C456.908 333.99 456.908 334.435 457.013 334.86C457.059 335.051 457.13 335.236 457.223 335.409V335.45C457.324 335.629 457.449 335.793 457.596 335.938C459.717 338.018 505.652 356.027 516.252 353.255C516.58 353.169 516.902 353.061 517.215 352.93C517.317 352.889 517.405 352.835 517.506 352.788C517.608 352.74 517.899 352.605 518.082 352.496C518.265 352.388 518.293 352.354 518.394 352.286C518.496 352.218 518.713 352.076 518.862 351.961C519.011 351.845 519.058 351.784 519.153 351.696C519.248 351.608 519.431 351.459 519.553 351.324C519.675 351.188 519.729 351.12 519.818 351.019C519.906 350.917 520.062 350.747 520.17 350.598C520.279 350.449 520.319 350.375 520.401 350.266C520.482 350.158 520.617 349.954 520.712 349.792C520.807 349.629 520.841 349.561 520.902 349.439C520.963 349.317 521.092 349.094 521.18 348.911C521.268 348.728 521.288 348.673 521.336 348.551C521.383 348.429 521.505 348.165 521.58 347.968C521.654 347.772 521.661 347.731 521.709 347.609C521.756 347.487 521.858 347.182 521.919 346.931C521.919 346.816 521.98 346.701 522.014 346.586C522.075 346.349 522.142 346.118 522.197 345.908C522.197 345.799 522.244 345.691 522.264 345.583C522.319 345.325 522.373 345.068 522.414 344.81C522.414 344.715 522.414 344.613 522.461 344.518C522.508 344.241 522.549 343.956 522.583 343.678V343.434C522.617 343.129 522.651 342.824 522.678 342.519V342.329C522.705 341.999 522.725 341.669 522.739 341.34V341.204C522.739 340.852 522.739 340.499 522.739 340.147V340.079C522.726 335.946 522.272 331.827 521.383 327.79L524.047 254.907C537.928 255.122 551.81 254.611 565.637 253.375L567.155 288.159C567.155 288.159 567.155 311.022 574.929 321.412C581.585 330.305 589.272 369.638 591.346 380.801C588.492 386.223 583.029 393.001 573.513 392.771C573.513 392.771 555.612 391.226 556.622 396.16C556.651 396.289 556.689 396.416 556.737 396.54C556.794 396.682 556.859 396.82 556.934 396.953C557.008 397.082 557.09 397.211 557.185 397.346L557.239 397.427C557.341 397.57 557.456 397.719 557.585 397.875V397.909C557.707 398.051 557.835 398.193 557.978 398.336L558.1 398.458C558.262 398.62 558.425 398.783 558.615 398.953C567.799 407.269 621.508 408.652 621.508 408.652V408.462C621.508 408.408 621.508 408.34 621.508 408.265C621.508 405.859 621.155 393.239 617.943 383.736H618.688C618.688 383.736 610.914 313.76 604.556 305.45C604.556 305.45 602.868 268.551 606.678 245.431L607.355 245.173C625.168 238.517 626.435 222.128 624.599 210.091C627.988 211.175 629.967 211.914 629.967 211.914C629.967 211.914 629.906 211.392 629.79 210.463L629.967 210.531C629.967 210.531 629.628 208.328 629.065 204.899C627.791 195.457 625.324 178.959 622.694 171.171C622.267 169.457 621.86 167.993 621.487 166.888C619.97 162.208 618.927 157.387 618.376 152.498C617.656 146.161 617.292 139.789 617.285 133.411C617.343 124.89 617.995 116.383 619.237 107.953C620.315 100.592 621.271 92.2146 621.203 86.3652C621.277 84.3224 621.134 82.2775 620.776 80.265C619.834 75.9474 615.665 73.1413 611.334 71.3519C611.056 71.2367 610.771 71.1418 610.487 71.0334C610.595 69.3999 610.731 67.5427 610.907 65.611C611.426 65.9706 612.013 66.221 612.631 66.3468C613.25 66.4727 613.888 66.4714 614.506 66.343C616.37 65.9363 617.705 64.3842 618.891 62.954C625.154 55.261 631.587 47.2426 633.993 37.6857C634.965 33.4178 635.42 29.0485 635.348 24.6719C635.348 24.4324 635.348 24.1929 635.348 23.9534C635.464 22.3167 635.294 20.6722 634.847 19.0936Z" fill="url(#paint1_linear)"/>
<path d="M577.824 56.5962C577.824 56.5962 587.313 70.83 585.28 77.608C583.246 84.386 607.647 80.3192 607.647 80.3192C607.647 80.3192 608.325 53.885 613.069 47.7848C617.814 41.6846 577.824 56.5962 577.824 56.5962Z" fill="#F7C4A7"/>
<path d="M515.127 65.7465C515.127 65.7465 495.471 49.4793 496.149 43.3792C496.149 43.3792 481.237 14.9116 475.815 29.1454C470.393 43.3792 485.982 58.2907 485.982 58.2907L504.96 83.3693L515.127 65.7465Z" fill="#F7C4A7"/>
<path d="M495.132 320.938C495.132 320.938 476.832 332.46 469.376 329.071C461.92 325.682 459.209 331.105 461.242 333.138C463.276 335.172 507.333 352.794 517.5 350.083C527.667 347.372 522.495 325.167 522.495 325.167L495.132 320.938Z" fill="#535461"/>
<path d="M592.057 370.417C592.057 370.417 587.652 389.057 572.401 388.718C572.401 388.718 549.356 386.684 558.167 394.818C566.979 402.952 618.492 404.307 618.492 404.307C618.492 404.307 618.492 376.517 609.002 370.417C599.513 364.317 592.057 370.417 592.057 370.417Z" fill="#535461"/>
<path d="M564.268 238.924L566.301 286.37C566.301 286.37 566.301 308.737 573.757 318.904C581.213 329.071 590.024 379.906 590.024 379.906H615.78C615.78 379.906 608.325 311.449 602.224 303.315C602.224 303.315 599.513 242.991 609.002 229.435L564.268 238.924Z" fill="#575988"/>
<path opacity="0.1" d="M564.268 238.924L566.301 286.37C566.301 286.37 566.301 308.737 573.757 318.904C581.213 329.071 590.024 379.906 590.024 379.906H615.78C615.78 379.906 608.325 311.449 602.224 303.315C602.224 303.315 599.513 242.991 609.002 229.435L564.268 238.924Z" fill="black"/>
<path d="M617.814 196.223C617.814 196.223 633.403 233.502 604.936 244.347C576.468 255.191 524.955 253.836 524.955 253.836L522.244 332.46C522.244 332.46 490.388 336.527 489.71 326.36V240.28C489.71 240.28 490.388 230.791 511.399 222.657C532.411 214.523 560.879 210.457 560.879 210.457L562.234 192.834L617.814 196.223Z" fill="#575988"/>
<path d="M592.837 72.0568C598.251 71.4574 603.729 72.2313 608.765 74.3071C612.92 76.0559 616.899 78.8009 617.821 83.0236C618.892 88.0258 617.705 99.2434 616.343 108.739C614.161 123.621 613.883 138.719 615.516 153.671C616.043 158.45 617.042 163.166 618.498 167.749C621.549 176.899 626.632 210.45 626.632 210.45C626.632 210.45 581.897 193.505 559.53 203.672C559.53 203.672 556.48 134.197 556.141 111.491C555.876 93.9091 578.169 73.8733 585.625 73.1955C589.99 72.8024 588.492 72.511 592.837 72.0568Z" fill="#E14B5A"/>
<path opacity="0.1" d="M604.936 109.465L556.812 106.753C556.812 106.753 553.748 83.1592 560.696 83.4032L608.325 85.0638C608.325 85.0638 618.492 97.2642 604.936 109.465Z" fill="black"/>
<path d="M604.935 108.109L550.034 105.398C550.034 105.398 507.332 92.5196 495.132 78.2858C495.132 78.2858 495.81 53.2072 509.366 51.8516L541.433 75.3645C547.037 79.4752 553.749 81.804 560.696 82.0476L608.324 83.7082C608.324 83.7082 618.491 95.9086 604.935 108.109Z" fill="#E14B5A"/>
<path opacity="0.1" d="M607.308 59.6463C608.115 53.2208 611.029 51.0857 613.069 48.4626C617.814 42.3624 577.824 57.274 577.824 57.274C579.891 60.4494 581.704 63.7833 583.246 67.2445C586.434 68.7134 589.903 69.4742 593.413 69.4744C599.283 69.4744 603.092 63.1234 607.308 59.6463Z" fill="black"/>
<path d="M593.413 68.7966C606.889 68.7966 617.814 57.8721 617.814 44.3959C617.814 30.9197 606.889 19.9951 593.413 19.9951C579.937 19.9951 569.012 30.9197 569.012 44.3959C569.012 57.8721 579.937 68.7966 593.413 68.7966Z" fill="#F7C4A7"/>
<path opacity="0.1" d="M578.007 27.295C575.411 24.455 574.157 20.6729 572.977 17.006L570.266 8.60805C573.94 10.777 577.857 5.89686 582.073 5.21906C585.09 4.73782 587.943 6.50011 590.722 7.76759C602.787 13.2849 618.512 10.5466 628.218 19.5816C629.544 20.7305 630.573 22.1842 631.214 23.8179C631.661 25.3573 631.845 26.9616 631.756 28.5625C631.835 32.8405 631.41 37.1131 630.488 41.2915C628.184 50.6384 622.016 58.4873 616.004 66.0109C614.865 67.441 613.584 68.9593 611.795 69.3592C608.304 70.1387 605.606 66.3701 604.258 63.0624C602.471 58.6795 601.153 54.1196 600.326 49.459C599.974 47.4866 599.696 45.4532 598.713 43.7113C596.612 39.9902 591.434 36.4656 588.289 33.5782C585.144 30.6908 580.894 30.4467 578.007 27.295Z" fill="black"/>
<path d="M578.007 26.6172C575.411 23.7772 574.157 19.9951 572.977 16.3282L570.266 7.93026C573.94 10.0992 577.857 5.21906 582.073 4.54126C585.09 4.06003 587.943 5.82231 590.722 7.08979C602.787 12.6071 618.512 9.86877 628.218 18.9038C629.544 20.0527 630.573 21.5064 631.214 23.1401C631.661 24.6795 631.845 26.2838 631.756 27.8847C631.835 32.1628 631.41 36.4353 630.488 40.6137C628.184 49.9606 622.016 57.8095 616.004 65.3331C614.865 66.7632 613.584 68.2815 611.795 68.6814C608.304 69.4609 605.606 65.6923 604.258 62.3846C602.471 58.0017 601.153 53.4418 600.326 48.7812C599.974 46.8088 599.696 44.7754 598.713 43.0335C596.612 39.3124 591.434 35.7878 588.289 32.9004C585.144 30.013 580.894 29.769 578.007 26.6172Z" fill="#632652"/>
<path d="M599.852 51.5127C600.975 51.5127 601.886 49.5402 601.886 47.107C601.886 44.6739 600.975 42.7014 599.852 42.7014C598.729 42.7014 597.819 44.6739 597.819 47.107C597.819 49.5402 598.729 51.5127 599.852 51.5127Z" fill="#F7C4A7"/>
<path opacity="0.1" d="M612.053 164.705C612.053 164.705 610.697 168.772 603.919 168.094C597.141 167.416 577.485 166.061 577.485 168.094" fill="black"/>
<path opacity="0.5" d="M558.168 394.14C556.948 393.015 556.337 392.107 556.195 391.314C556.019 392.195 556.561 393.347 558.168 394.818C566.979 402.952 618.492 404.307 618.492 404.307C618.492 404.307 618.492 404.07 618.492 403.629C618.16 403.623 566.952 402.247 558.168 394.14Z" fill="white"/>
<path opacity="0.5" d="M517.5 348.728C507.333 351.439 463.276 333.816 461.242 331.783C460.971 331.508 460.777 331.166 460.68 330.793C460.562 331.199 460.552 331.629 460.651 332.04C460.75 332.451 460.953 332.829 461.242 333.138C463.276 335.172 507.333 352.794 517.5 350.083C522.732 348.687 523.898 342.133 523.803 336.093C523.702 341.719 522.339 347.426 517.5 348.728Z" fill="white"/>
<path d="M340.316 341.434C340.586 341.434 340.844 341.327 341.035 341.137C341.226 340.946 341.333 340.687 341.333 340.418C341.333 340.148 341.226 339.89 341.035 339.699C340.844 339.508 340.586 339.401 340.316 339.401C340.046 339.401 339.788 339.508 339.597 339.699C339.406 339.89 339.299 340.148 339.299 340.418C339.299 340.687 339.406 340.946 339.597 341.137C339.788 341.327 340.046 341.434 340.316 341.434Z" fill="#67647E"/>
<path opacity="0.2" d="M235.693 354.536C207.137 354.767 169.343 350.09 161.731 345.454C155.936 341.922 153.598 329.261 152.859 323.419H152.012C152.012 323.419 153.611 343.82 161.223 348.45C168.835 353.079 206.629 357.797 235.157 357.593C243.399 357.525 246.246 354.597 246.09 350.253C244.972 352.849 241.827 354.489 235.693 354.536Z" fill="black"/>
<path d="M641.306 388.487H699.136C702.445 388.487 705.128 385.805 705.128 382.496V366.689C705.128 363.38 702.445 360.698 699.136 360.698H641.306C637.997 360.698 635.315 363.38 635.315 366.689V382.496C635.315 385.805 637.997 388.487 641.306 388.487Z" fill="#1F59BB" fill-opacity="0.82"/>
<path d="M699.136 334.263H641.306C637.997 334.263 635.314 336.946 635.314 340.255V356.061C635.314 359.371 637.997 362.053 641.306 362.053H699.136C702.445 362.053 705.128 359.371 705.128 356.061V340.255C705.128 336.946 702.445 334.263 699.136 334.263Z" fill="#1F59BB"/>
<path d="M641.306 334.263H699.136C702.445 334.263 705.128 331.581 705.128 328.272V312.465C705.128 309.156 702.445 306.474 699.136 306.474H641.306C637.997 306.474 635.315 309.156 635.315 312.465V328.272C635.315 331.581 637.997 334.263 641.306 334.263Z" fill="#1F59BB" fill-opacity="0.82"/>
<path d="M699.136 278.684H641.306C637.997 278.684 635.314 281.366 635.314 284.676V300.482C635.314 303.791 637.997 306.474 641.306 306.474H699.136C702.445 306.474 705.128 303.791 705.128 300.482V284.676C705.128 281.366 702.445 278.684 699.136 278.684Z" fill="#1F59BB"/>
</g>
<defs>
<linearGradient id="paint0_linear" x1="489.927" y1="48.6321" x2="489.927" y2="18.687" gradientUnits="userSpaceOnUse">
<stop stop-color="#808080" stop-opacity="0.25"/>
<stop offset="0.54" stop-color="#808080" stop-opacity="0.12"/>
<stop offset="1" stop-color="#808080" stop-opacity="0.1"/>
</linearGradient>
<linearGradient id="paint1_linear" x1="158502" y1="297677" x2="158502" y2="51254.3" gradientUnits="userSpaceOnUse">
<stop stop-color="#808080" stop-opacity="0.25"/>
<stop offset="0.54" stop-color="#808080" stop-opacity="0.12"/>
<stop offset="1" stop-color="#808080" stop-opacity="0.1"/>
</linearGradient>
<clipPath id="clip0">
<rect width="705.128" height="440" fill="white"/>
</clipPath>
</defs>
</svg>
