<svg xmlns="http://www.w3.org/2000/svg" width="20" height="16" fill="none" viewBox="0 0 20 16"><path fill="#2A5699" d="M10 0.25C4.61406 0.25 0.25 4.61406 0.25 10C0.25 12.2641 1.02344 14.3453 2.31719 16H5.07344L5.26094 15.8125L6.29688 14.7766L5.22344 13.7031L4.1875 14.7344C3.25469 13.5953 2.68281 12.2031 2.5375 10.75H4V9.25H2.5375C2.68281 7.79688 3.25469 6.40469 4.1875 5.26562L5.22344 6.29688L6.29688 5.22344L5.26562 4.1875C6.40469 3.25469 7.79688 2.68281 9.25 2.5375V4H10.75V2.5375C12.2031 2.68281 13.5953 3.25469 14.7344 4.1875L13.7031 5.22344L14.7766 6.29688L15.8125 5.26562C16.7453 6.40469 17.3172 7.79688 17.4625 9.25H16V10.75H17.4625C17.3172 12.2031 16.7453 13.5953 15.8125 14.7344L14.7766 13.7031L13.7031 14.7766L14.7391 15.8125L14.9266 16H17.6828C18.9766 14.3453 19.75 12.2641 19.75 10C19.75 4.61406 15.3859 0.25 10 0.25Z"/></svg>